<?xml version="1.0"?>
<svg width="47" height="36" xmlns="http://www.w3.org/2000/svg" xmlns:svg="http://www.w3.org/2000/svg">
 <g>
  <title>Layer 1</title>
  <g id="svg_1">
   <g id="svg_2">
    <circle id="svg_3" r="8.1" cy="8.9" cx="8.100001" fill="#FBCD3E"/>
    <g id="svg_4">
     <circle id="svg_5" r="8.1" cy="8.1" cx="9.700001" stroke-miterlimit="10" stroke-width="2" stroke="#1D1D1D" fill="none"/>
     <path id="svg_6" d="m13.1,5.799999c0,1.400002 -1.099998,2.5 -2.5,2.5l-2.5,0c0,0 0,-4.099998 0,-5.099998c0,0 1.099998,0 2.5,0s2.5,1.200001 2.5,2.599998z" stroke-miterlimit="10" stroke-width="2" stroke="#1D1D1D" fill="none"/>
     <line id="svg_7" y2="13.5" x2="8.000001" y1="5.8" x1="8.000001" stroke-miterlimit="10" stroke-width="2" stroke="#1D1D1D" fill="none"/>
     <line id="svg_8" y2="11" x2="9.700001" y1="11" x1="6.300001" stroke-miterlimit="10" stroke-width="2" stroke="#1D1D1D" fill="none"/>
     <line id="svg_9" y2="8.3" x2="6.300001" y1="8.3" x1="8.000001" stroke-miterlimit="10" stroke-width="2" stroke="#1D1D1D" fill="none"/>
    </g>
   </g>
   <circle id="svg_10" r="15.8" cy="20.3" cx="27.600001" fill="#FBCD3E"/>
   <g id="svg_11">
    <g id="svg_12">
     <polygon id="svg_13" points="36.00000190734863,25.700000762939453 28.600000381469727,18.599998474121094 28.600000381469727,8.200000762939453 30.600000381469727,8.200000762939453 30.600000381469727,17.700000762939453 37.39999961853027,24.299999237060547 " fill="#1D1D1D"/>
    </g>
    <g id="svg_14">
     <g id="svg_15">
      <path id="svg_16" d="m29.700003,34.199997c-4.099998,0 -8.299999,-1.599998 -11.299999,-4.700001l1.399998,-1.399998c4.700001,4.699997 12.100002,5.400002 17.6,1.799999l1.100006,1.700001c-2.700005,1.700005 -5.700005,2.599998 -8.800005,2.599998z" fill="#1D1D1D"/>
     </g>
     <g id="svg_17">
      <path id="svg_18" d="m43,27l-1.699997,-1.099998c3.699997,-5.5 2.899994,-12.900002 -1.800003,-17.600002l1.399998,-1.399998c5.500004,5.299999 6.300007,13.799999 2.100002,20.099998z" fill="#1D1D1D"/>
     </g>
    </g>
    <g id="svg_19">
     <g id="svg_20">
      <path id="svg_21" d="m45.700005,18.200001l-2,0c0,-6.599998 -4.800007,-12.400002 -11.300003,-13.700001l0.400002,-2c7.5,1.5 12.900002,8.099998 12.900002,15.700001z" fill="#1D1D1D"/>
     </g>
     <g id="svg_22">
      <path id="svg_23" d="m29.6,34.199997c-8.799999,0 -16,-7.200001 -16,-16c0,-7.599998 5.400002,-14.200001 12.799999,-15.700001l0.400002,2c-6.5,1.300003 -11.200001,7.000004 -11.200001,13.700005c0,7.700001 6.299999,14.000004 14,14.000004l0,1.999992z" fill="#1D1D1D"/>
     </g>
    </g>
   </g>
  </g>
 </g>
</svg>