<?xml version="1.0" encoding="utf-8"?>
<!-- Generator: Adobe Illustrator 18.0.0, SVG Export Plug-In . SVG Version: 6.00 Build 0)  -->
<!DOCTYPE svg PUBLIC "-//W3C//DTD SVG 1.1//EN" "http://www.w3.org/Graphics/SVG/1.1/DTD/svg11.dtd">
<svg version="1.1" id="Layer_1" xmlns="http://www.w3.org/2000/svg" xmlns:xlink="http://www.w3.org/1999/xlink" x="0px" y="0px"
	 viewBox="0 0 200 200" enable-background="new 0 0 200 200" xml:space="preserve">
<g>
	<path fill="#FFFFFF" d="M80,87.2c1.2-0.8,3,0,3.3,1.4c0.6,1.7-1.4,3.7-3,2.8C78.6,90.6,78.5,88.1,80,87.2z"/>
	<path fill="#FFFFFF" d="M68.9,93.1c1.2-1.4,2.2-2.9,3.7-4.1c0.1,1.5,0.1,2.9,0.1,4.4c1.5,0,3,0,4.6,0c0,1,0,2,0,3c-1.5,0-3,0-4.6,0
		c0,1.9,0,3.8,0,5.7c0,1.1,1.1,1.9,2.1,1.7c0.9-0.1,1.7-0.5,2.4-0.9c0,1,0,2.1,0,3.1c-2,0.8-4.3,1.3-6.3,0.3
		c-1.4-0.7-2.2-2.3-2.2-3.8c-0.1-2.1,0-4.1,0-6.2c-0.6,0-1.3,0-1.9,0C66.9,94.9,68.1,94.1,68.9,93.1z"/>
	<g>
		<path fill="#FFFFFF" d="M40.3,94.8c2.3-1.7,5.5-2.1,8.2-1.3c1.3,0.4,2.4,1.5,2.5,2.8c0.1,2.6-0.1,5.1,0.1,7.7
			c0.7,0,1.4-0.3,2.1-0.7c0,0.8,0,1.6,0,2.4c-1.8,1-4.7,2.2-6-0.2c-1.8,1.1-4.1,2-6,0.8c-2-1.3-1.9-4.4,0-5.8
			c1.8-1.3,4.1-1.7,6.1-2.6c-0.3-0.8-0.6-1.7-1.5-1.9c-2.1-0.4-4,0.9-5.5,2.2C40.3,97.1,40.2,95.9,40.3,94.8z M43.7,102.9
			c0,0.5,0.3,1,0.7,1.4c1,0.4,1.9-0.3,2.7-0.8c0-1.1,0-2.2,0-3.2C45.8,100.9,44.2,101.4,43.7,102.9z"/>
	</g>
	<path fill="#FFFFFF" d="M56.6,94.7c2.4-2.1,6-1.8,8.8-0.8c0,1.1,0,2.1,0,3.2c-1.5-0.7-3.4-1.3-5-0.5c-2.6,1.2-2.7,5.5-0.1,6.8
		c1.7,1,3.7,0.1,5.4-0.6c0,1,0,2.1,0,3.1c-2.7,1.1-5.9,1.4-8.5-0.2C53.3,103.6,53.1,97.4,56.6,94.7z"/>
	<path fill="#FFFFFF" d="M79.2,93.4c1.3,0,2.7,0,4,0c0,4.4,0,8.9,0,13.3c-1.3,0-2.7,0-4,0C79.2,102.2,79.2,97.8,79.2,93.4z"/>
	<g>
		<path fill="#FFFFFF" d="M90.5,93.5c2.4-0.7,5.2-0.3,7.2,1.3c2.4,2,2.8,5.7,1.6,8.5c-2.1,4.3-8.8,5-11.9,1.4
			C84.3,101.2,85.7,94.6,90.5,93.5z M91.3,96.2c-1.6,1.7-1.5,4.4-0.8,6.5c0.5,1.9,3.5,2.3,4.4,0.6c1-1.8,0.9-4.1,0.3-6
			C94.6,95.7,92.5,95.2,91.3,96.2z"/>
	</g>
	<path fill="#FFFFFF" d="M102.4,93.4c1.3,0,2.6,0,4,0c0,0.6,0,1.2,0,1.9c1.3-1.5,3.4-2.6,5.4-1.9c1.9,0.4,3.2,2.3,3.2,4.2
		c0,3,0,6.1,0,9.1c-1.3,0-2.6,0-4,0c0-2.8,0.1-5.6,0-8.4c0-1-0.6-2.2-1.7-2.3c-1.4-0.2-2.3,1.1-2.9,2.1c-0.1,2.8,0,5.7,0,8.5
		c-1.3,0-2.7,0-4,0C102.4,102.2,102.4,97.8,102.4,93.4z"/>
</g>
<g>
	<g>
		<path fill="#F2832C" d="M118,93.4c1.3,0,2.6,0,4,0c0,0.3,0,0.8,0,1c1.7-1.2,3.9-1.8,5.9-0.8c4.3,2.2,4.7,8.9,1.2,12
			c-2,1.7-4.9,1.6-7.1,0.5c0,2.4,0,4.7,0,7.1c-1.3,0-2.6,0-4,0C118,106.6,118,100,118,93.4z M122,97.3c-0.1,2,0,4-0.1,6
			c1,0.4,2.1,1.1,3.2,0.6c1.4-0.4,2.1-2,2.2-3.4c0.1-1.4-0.2-3-1.3-3.9C124.8,95.7,122.9,96.2,122,97.3z"/>
	</g>
	<g>
		<path fill="#F2832C" d="M133.7,94.7c2.2-1.3,4.8-2,7.4-1.4c1.5,0.3,3.1,1.2,3.3,2.9c0.3,2.6-0.1,5.3,0.2,7.9
			c0.7-0.2,1.4-0.5,2.1-0.7c0,0.8,0,1.6,0,2.3c-1.4,0.7-2.9,1.4-4.5,1.2c-0.7-0.1-1.1-0.8-1.6-1.3c-1.2,0.6-2.4,1.3-3.7,1.3
			c-1.5,0.1-3-0.8-3.5-2.2c-0.6-1.7,0.2-3.6,1.7-4.5c1.8-1,3.8-1.5,5.7-2.3c-0.4-0.7-0.6-1.8-1.6-1.9c-2.1-0.4-3.9,0.9-5.4,2.1
			C133.6,97,133.7,95.9,133.7,94.7z M137.1,103.3c0.4,1.6,2.4,1.1,3.2,0.3c0.2-1.1,0.1-2.2,0.1-3.3
			C139.2,101,137.1,101.6,137.1,103.3z"/>
	</g>
	<path fill="#F2832C" d="M146.4,93.4c1.4,0,2.9,0,4.3,0c0.9,2.2,1.7,4.5,2.6,6.7c0.9-2.3,1.8-4.5,2.8-6.7c1.4,0,2.8,0,4.2,0
		c-2.8,6.5-5.6,13.1-8.4,19.6c-1.4,0-2.8,0-4.2,0c1.2-2.9,2.4-5.7,3.7-8.5C149.7,100.8,148.1,97.1,146.4,93.4z"/>
</g>
</svg>
