<?xml version="1.0"?>
<svg width="121" height="27" xmlns="http://www.w3.org/2000/svg" xmlns:svg="http://www.w3.org/2000/svg">
 <g>
  <title>Layer 1</title>
  <g id="svg_17">
   <g id="svg_1">
    <path id="svg_2" d="m40.799995,0.799995c1.199997,-0.799995 3,0 3.300003,1.400002c0.599998,1.700005 -1.400002,3.700005 -3,2.800003c-1.700005,-0.800003 -1.800003,-3.300003 -0.300003,-4.200005z" fill="#FFFFFF"/>
    <path id="svg_3" d="m29.699997,6.699997c1.199997,-1.400002 2.199997,-2.900002 3.699997,-4.099998c0.099998,1.5 0.099998,2.900002 0.099998,4.400002c1.5,0 3,0 4.600006,0c0,1 0,2 0,3c-1.5,0 -3,0 -4.600006,0c0,1.900002 0,3.799995 0,5.699997c0,1.099998 1.100006,1.900002 2.100006,1.700005c0.899994,-0.100006 1.699997,-0.5 2.399994,-0.900002c0,1 0,2.099998 0,3.099998c-2,0.800003 -4.299995,1.300003 -6.299995,0.300003c-1.400002,-0.700005 -2.200005,-2.300003 -2.200005,-3.800003c-0.099998,-2.099998 0,-4.099998 0,-6.199997c-0.599998,0 -1.299995,0 -1.899994,0c0.099998,-1.400002 1.299995,-2.200005 2.099998,-3.200005z" fill="#FFFFFF"/>
    <g id="svg_4">
     <path id="svg_5" d="m1.099998,8.400002c2.299995,-1.700005 5.5,-2.100006 8.199997,-1.300003c1.299999,0.400002 2.400002,1.5 2.5,2.800003c0.099998,2.599998 -0.099998,5.099998 0.099998,7.699997c0.700001,0 1.400002,-0.300003 2.100002,-0.699997c0,0.799995 0,1.599998 0,2.399994c-1.799999,1 -4.700001,2.200005 -5.999996,-0.199997c-1.800003,1.099998 -4.100006,2 -6,0.800003c-2,-1.300003 -1.900001,-4.400002 0,-5.800003c1.799995,-1.300003 4.099998,-1.699997 6.099998,-2.599998c-0.300003,-0.800003 -0.600006,-1.700005 -1.5,-1.900002c-2.100006,-0.400002 -4,0.900002 -5.5,2.199997c0,-1.099998 -0.099998,-2.299995 0,-3.399994zm3.399994,8.099998c0,0.5 0.300003,1 0.700005,1.400002c1,0.399994 1.900002,-0.300003 2.699997,-0.800003c0,-1.099998 0,-2.199997 0,-3.199997c-1.299995,0.599998 -2.899994,1.099998 -3.400002,2.599998z" fill="#FFFFFF"/>
    </g>
    <path id="svg_6" d="m17.399994,8.299995c2.400002,-2.099998 6,-1.799995 8.800003,-0.799995c0,1.099998 0,2.099998 0,3.199997c-1.5,-0.699997 -3.400002,-1.299995 -5,-0.5c-2.600002,1.200005 -2.700001,5.5 -0.100002,6.800003c1.700001,1 3.700001,0.099998 5.399998,-0.599998c0,1 0,2.099998 0,3.099998c-2.699997,1.099998 -5.899998,1.400002 -8.499996,-0.200005c-3.900002,-2.099998 -4.100002,-8.299995 -0.600002,-11z" fill="#FFFFFF"/>
    <path id="svg_7" d="m39.999992,7c1.300003,0 2.700005,0 4,0c0,4.400002 0,8.900002 0,13.299995c-1.299995,0 -2.699997,0 -4,0c0,-4.5 0,-8.899994 0,-13.299995z" fill="#FFFFFF"/>
    <g id="svg_8">
     <path id="svg_9" d="m51.299995,7.099998c2.400002,-0.699997 5.199997,-0.300003 7.199997,1.300003c2.400002,2 2.800003,5.699997 1.600006,8.5c-2.100006,4.299995 -8.800003,5 -11.900002,1.399994c-3.099998,-3.5 -1.700005,-10.099998 3.099998,-11.199997zm0.800003,2.699997c-1.600006,1.700005 -1.5,4.400002 -0.800003,6.5c0.5,1.900002 3.5,2.300003 4.400002,0.600006c1,-1.800003 0.900002,-4.100006 0.299995,-6c-0.599998,-1.600006 -2.699997,-2.100006 -3.899994,-1.100006z" fill="#FFFFFF"/>
    </g>
    <path id="svg_10" d="m63.199997,7c1.299995,0 2.599998,0 4,0c0,0.599998 0,1.199997 0,1.900002c1.299995,-1.5 3.400002,-2.600006 5.400002,-1.900002c1.899994,0.400002 3.199997,2.299995 3.199997,4.199997c0,3 0,6.099998 0,9.099998c-1.300003,0 -2.599998,0 -4,0c0,-2.799995 0.099998,-5.599998 0,-8.399994c0,-1 -0.599998,-2.200005 -1.699997,-2.300003c-1.400002,-0.199997 -2.300003,1.099998 -2.900002,2.099998c-0.099998,2.800003 0,5.700005 0,8.5c-1.300003,0 -2.700005,0 -4,0c0,-4.400002 0,-8.799995 0,-13.199997z" fill="#FFFFFF"/>
   </g>
   <g id="svg_11">
    <g id="svg_12">
     <path id="svg_13" d="m78.799995,7c1.300003,0 2.599998,0 4,0c0,0.299995 0,0.799995 0,1c1.699997,-1.200005 3.900002,-1.800003 5.900002,-0.800003c4.299995,2.200005 4.700005,8.900002 1.200005,12c-2.000008,1.700005 -4.900009,1.599998 -7.100006,0.5c0,2.400002 0,4.700005 0,7.099998c-1.300003,0 -2.599998,0 -4,0c0,-6.599998 0,-13.199997 0,-19.799995zm4,3.900002c-0.099998,2 0,4 -0.099998,6c1,0.399994 2.099998,1.099998 3.199997,0.599998c1.400002,-0.400002 2.099998,-2 2.200005,-3.400002c0.099998,-1.400002 -0.200005,-3 -1.300003,-3.900002c-1.199997,-0.900002 -3.099998,-0.400002 -4,0.700005z" fill="#F2832C"/>
    </g>
    <g id="svg_14">
     <path id="svg_15" d="m94.499992,8.299995c2.199997,-1.299995 4.800003,-2 7.400009,-1.399994c1.5,0.299995 3.099991,1.199997 3.299988,2.899994c0.300003,2.600006 -0.099991,5.300003 0.200012,7.900002c0.699997,-0.199997 1.399994,-0.5 2.099991,-0.699997c0,0.799995 0,1.599998 0,2.299995c-1.399994,0.700005 -2.899994,1.400002 -4.5,1.200005c-0.699997,-0.099998 -1.099991,-0.800003 -1.599991,-1.300003c-1.200012,0.599998 -2.400009,1.300003 -3.700012,1.300003c-1.5,0.099998 -3,-0.800003 -3.5,-2.200005c-0.599991,-1.699997 0.200012,-3.599998 1.700012,-4.5c1.799988,-1 3.799988,-1.5 5.699997,-2.299995c-0.400009,-0.700005 -0.600006,-1.800003 -1.600006,-1.900002c-2.099991,-0.400002 -3.899994,0.900002 -5.399994,2.099998c-0.199997,-1.099998 -0.100006,-2.199997 -0.100006,-3.400002zm3.400009,8.600006c0.400009,1.599998 2.400009,1.099998 3.199997,0.299995c0.200012,-1.099998 0.100006,-2.199997 0.100006,-3.299995c-1.200012,0.699997 -3.300003,1.299995 -3.300003,3z" fill="#F2832C"/>
    </g>
    <path id="svg_16" d="m107.199989,7c1.399994,0 2.899994,0 4.300003,0c0.899994,2.199997 1.699997,4.5 2.599991,6.699997c0.900009,-2.299995 1.800003,-4.5 2.800003,-6.699997c1.399994,0 2.800003,0 4.199997,0c-2.800003,6.5 -5.599991,13.099998 -8.399994,19.599998c-1.400009,0 -2.800003,0 -4.199997,0c1.199997,-2.900002 2.399994,-5.699997 3.699997,-8.5c-1.699997,-3.699997 -3.299988,-7.400002 -5,-11.099998z" fill="#F2832C"/>
   </g>
  </g>
 </g>
</svg>