<?xml version="1.0" encoding="utf-8"?>
<!-- Generator: Adobe Illustrator 18.0.0, SVG Export Plug-In . SVG Version: 6.00 Build 0)  -->
<!DOCTYPE svg PUBLIC "-//W3C//DTD SVG 1.1//EN" "http://www.w3.org/Graphics/SVG/1.1/DTD/svg11.dtd">
<svg version="1.1" id="Layer_1" xmlns="http://www.w3.org/2000/svg" xmlns:xlink="http://www.w3.org/1999/xlink" x="0px" y="0px"
	 viewBox="0 0 419.5 595.3" enable-background="new 0 0 419.5 595.3" xml:space="preserve">
<g>
	<g>
		<path fill="#F1832B" d="M99.2,270.7c5.8-1.4,11.9-1.7,17.7-0.6c6.6,1.1,13,3.6,18.8,7.4c6.9,4.7,12.4,11,16.3,18.5
			c0.3,0.6,0.6,1.1,0.6,1.7c0,0.6-0.3,0.8-0.6,1.4c-3.9,7.7-9.7,14.3-16.8,19c-3-3-6.3-6.3-9.7-9.7c1.4-1.7,2.2-3.9,2.8-5.8
			c0.6-2.8,0.8-6.1,0.3-8.8c-0.6-3.3-2.5-6.6-4.7-9.1c-2.8-2.8-6.1-5-9.7-5.8c-2.8-0.6-5.5-0.6-8.3,0c-3.9,0.8-7.4,2.8-10.2,6.1
			c-1.7,1.7-2.8,3.6-3.6,5.8c-1.7,4.4-1.7,9.7,0,14.1c1.7,3.9,4.1,7.4,7.7,9.4c3.6,2.2,7.7,3,11.9,2.8c3.3-0.3,6.3-1.4,9.4-3.3
			c2.8,2.8,5.2,5.2,8,8c-4.7,1.9-9.7,3.3-14.6,3.9c-6.3,0.6-12.4,0-18.2-1.9c-3.9-1.4-7.7-3-11.3-5.2c-7.4-5-13.5-11.9-17.4-19.9
			c-0.3-0.3-0.3-0.6-0.3-1.1s0.3-0.6,0.6-0.8c3-6.6,8-12.4,13.8-17.1C86.6,275.1,92.6,272.1,99.2,270.7z"/>
		<path fill="#F1832B" d="M108.9,285.3c2.2,0,4.4,0.6,6.3,1.4c1.9,1.1,3.6,2.8,5,4.7c0.8,1.7,1.7,3.3,1.7,5.2
			c0.3,2.2-0.3,4.7-1.4,6.6c-1.4,2.8-3.9,5-6.3,5.8c-2.2,0.8-4.4,1.1-6.9,0.6c-1.9-0.6-3.9-1.4-5.5-2.8c-1.7-1.4-2.8-2.8-3.6-5
			c-0.8-2.5-1.1-5-0.6-7.4c0.6-2.2,1.7-4.1,3.3-5.8C103.1,286.4,105.9,285.3,108.9,285.3z"/>
	</g>
	<g>
		<path fill="#FFFFFF" d="M173.1,311c0,0.3,0,0.6-0.1,0.8s-0.3,0.6-0.4,0.8c-0.1,0.3-0.4,0.6-0.7,0.7s-0.7,0.4-1,0.4v0.1
			c0.4,0,0.7,0.1,1,0.3c0.3,0.1,0.6,0.3,0.8,0.6c0.3,0.3,0.4,0.6,0.6,0.8c0.1,0.4,0.3,0.7,0.3,1.2c0,0.7-0.1,1.1-0.4,1.7
			c-0.3,0.4-0.6,0.8-1,1.1c-0.4,0.3-1,0.6-1.5,0.7s-1.1,0.3-1.7,0.3c-0.1,0-0.4,0-0.7,0s-0.6,0-0.8,0c-0.3,0-0.6,0-0.8-0.1
			c-0.3,0-0.6-0.1-0.8-0.1v-12c0.4-0.1,1-0.1,1.5-0.1s1.2-0.1,1.8-0.1c0.4,0,1,0,1.4,0.1c0.4,0.1,0.8,0.3,1.2,0.4
			c0.4,0.3,0.7,0.6,1,0.8C173,309.9,173.1,310.3,173.1,311z M168.1,313.4c0.1,0,0.4,0,0.7,0s0.6,0,0.7,0c0.3-0.1,0.6-0.1,0.8-0.3
			s0.4-0.3,0.7-0.4c0.1-0.1,0.3-0.4,0.4-0.7c0.1-0.3,0.1-0.6,0.1-0.8c0-0.4-0.1-0.7-0.3-1c-0.1-0.3-0.3-0.4-0.6-0.6
			c-0.3-0.1-0.6-0.3-0.8-0.3s-0.7-0.1-1-0.1c-0.4,0-0.7,0-1.1,0c-0.3,0-0.6,0-0.7,0.1v4.1h1V313.4z M169.1,319.1
			c0.4,0,0.7,0,1.1-0.1c0.4-0.1,0.7-0.3,1-0.4s0.4-0.4,0.7-0.7c0.1-0.3,0.3-0.6,0.3-1s-0.1-0.8-0.3-1.1c-0.1-0.3-0.4-0.6-0.7-0.7
			c-0.3-0.1-0.7-0.3-1-0.3c-0.4,0-0.8-0.1-1.1-0.1h-1.5v4.4c0.1,0,0.1,0,0.4,0c0.1,0,0.3,0,0.6,0C168.7,319.1,169,319.1,169.1,319.1
			S169,319.1,169.1,319.1z"/>
		<path fill="#FFFFFF" d="M179.9,312.9c-0.4-0.1-0.7-0.1-1-0.1c-0.6,0-0.8,0.1-1.2,0.4c-0.3,0.3-0.4,0.6-0.6,1v6.1h-1.4v-8.7h1
			l0.3,1.1h0.1c0.3-0.4,0.6-0.7,0.8-1c0.3-0.3,0.7-0.3,1.1-0.3c0.3,0,0.7,0,1.1,0.1L179.9,312.9z"/>
		<path fill="#FFFFFF" d="M181.5,312.2c0.4-0.3,1-0.4,1.5-0.6c0.6-0.1,1.2-0.1,1.8-0.1s1.1,0.1,1.5,0.3c0.4,0.1,0.7,0.4,0.8,0.7
			c0.1,0.3,0.3,0.6,0.4,0.8c0,0.3,0.1,0.7,0.1,1c0,0.7,0,1.4,0,2.1s0,1.2,0,1.9c0,0.4,0,0.8,0,1.2c0,0.4,0.1,0.7,0.1,1.1h-1
			l-0.4-1.2h-0.1c-0.1,0.1-0.3,0.3-0.4,0.4c-0.1,0.1-0.3,0.3-0.6,0.4c-0.3,0.1-0.4,0.3-0.8,0.3c-0.3,0.1-0.6,0.1-1,0.1
			c-0.4,0-0.7,0-1-0.1c-0.3-0.1-0.6-0.3-0.8-0.6c-0.3-0.3-0.4-0.4-0.6-0.8c-0.1-0.3-0.1-0.7-0.1-1c0-0.6,0.1-1,0.3-1.2
			c0.3-0.3,0.6-0.6,0.8-0.8c0.4-0.1,0.8-0.4,1.4-0.4c0.6-0.1,1.1-0.1,1.8-0.1c0.1,0,0.3,0,0.4,0s0.3,0,0.4,0c0-0.4,0-0.7,0-1
			c0-0.7-0.1-1.1-0.4-1.4s-0.7-0.4-1.4-0.4c-0.1,0-0.4,0-0.7,0s-0.4,0.1-0.7,0.1s-0.4,0.1-0.7,0.1c-0.3,0.1-0.4,0.1-0.6,0.3
			L181.5,312.2z M184,319.2c0.3,0,0.6,0,0.8-0.1c0.3-0.1,0.4-0.1,0.7-0.3c0.1-0.1,0.3-0.3,0.4-0.4c0.1-0.1,0.3-0.3,0.3-0.4v-1.4
			c-0.1,0-0.3,0-0.6,0c-0.1,0-0.3,0-0.6,0c-0.4,0-0.7,0-1.1,0c-0.3,0-0.7,0.1-1,0.3s-0.4,0.3-0.7,0.4c-0.1,0.1-0.3,0.4-0.3,0.7
			c0,0.4,0.1,0.7,0.4,1C183.2,319.1,183.4,319.2,184,319.2z"/>
		<path fill="#FFFFFF" d="M195.9,320.2v-5c0-1-0.1-1.5-0.4-2.1c-0.3-0.4-0.7-0.7-1.4-0.7c-0.6,0-1.1,0.1-1.5,0.6
			c-0.4,0.3-0.7,0.7-0.8,1.2v5.9h-1.4v-8.7h1l0.3,1.1h0.1c0.3-0.4,0.7-0.7,1.1-1s1-0.4,1.7-0.4c0.4,0,0.8,0,1.2,0.1s0.7,0.3,0.8,0.6
			c0.3,0.3,0.4,0.7,0.6,1.1s0.1,1.1,0.1,1.8v5.2h-1.4V320.2z"/>
		<path fill="#FFFFFF" d="M206.4,317.3c0,0.6,0,1.1,0,1.7c0,0.4,0,1,0.1,1.4h-1l-0.4-1.2H205c-0.3,0.4-0.6,0.7-1,1
			c-0.4,0.3-1,0.4-1.5,0.4c-1.1,0-2.1-0.4-2.6-1.1c-0.6-0.7-0.8-1.9-0.8-3.5c0-1.5,0.4-2.6,1.1-3.3s1.7-1.1,2.9-1.1
			c0.4,0,0.8,0,1,0.1c0.3,0,0.6,0.1,0.8,0.3v-3.6h1.4v9H206.4z M202.9,319.2c0.6,0,1.1-0.1,1.4-0.4c0.4-0.3,0.6-0.8,0.7-1.4v-4.3
			c-0.3-0.1-0.4-0.3-0.7-0.4c-0.3-0.1-0.6-0.1-1.1-0.1c-0.8,0-1.4,0.3-1.9,0.8c-0.4,0.6-0.7,1.4-0.7,2.5c0,0.4,0,1,0.1,1.4
			s0.1,0.7,0.4,1.1c0.1,0.3,0.4,0.6,0.7,0.7C202.2,319.2,202.5,319.2,202.9,319.2z"/>
		<path fill="#FFFFFF" d="M213.7,311.6h1l0.3,1.1h0.1c0.3-0.4,0.6-0.7,1-1c0.4-0.3,1-0.3,1.5-0.3c1.1,0,2.1,0.3,2.6,1
			s0.8,1.8,0.8,3.3c0,0.7-0.1,1.4-0.3,1.9s-0.4,1.1-0.8,1.5c-0.4,0.4-0.8,0.7-1.2,1c-0.6,0.3-1.1,0.3-1.7,0.3c-0.4,0-0.8,0-1-0.1
			c-0.3,0-0.6-0.1-0.8-0.3v3.6h-1.4v-12H213.7z M217.3,312.6c-0.6,0-1.1,0.1-1.4,0.4c-0.3,0.3-0.6,0.8-0.7,1.4v4.3
			c0.3,0.1,0.4,0.3,0.7,0.4c0.3,0.1,0.6,0.1,1.1,0.1c0.8,0,1.4-0.3,1.9-0.8c0.4-0.6,0.7-1.5,0.7-2.6c0-0.4,0-1-0.1-1.2
			c-0.1-0.4-0.3-0.7-0.4-1c-0.1-0.3-0.4-0.6-0.7-0.7C218,312.6,217.7,312.6,217.3,312.6z"/>
		<path fill="#FFFFFF" d="M227.2,312.9c-0.3-0.1-0.7-0.1-1-0.1c-0.6,0-0.8,0.1-1.2,0.4c-0.3,0.3-0.4,0.6-0.6,1v6.1h-1.4v-8.7h1
			l0.3,1.1h0.1c0.3-0.4,0.6-0.7,0.8-1c0.3-0.3,0.7-0.3,1.1-0.3c0.3,0,0.7,0,1.1,0.1L227.2,312.9z"/>
		<path fill="#FFFFFF" d="M228.6,315.9c0-1.5,0.3-2.6,1-3.3c0.7-0.8,1.7-1.1,2.8-1.1c0.7,0,1.2,0.1,1.7,0.3c0.4,0.3,0.8,0.6,1.2,1
			c0.3,0.4,0.6,0.8,0.7,1.4c0.1,0.6,0.3,1.2,0.3,1.9c0,1.5-0.3,2.6-1,3.3c-0.7,0.8-1.7,1.1-2.8,1.1c-0.7,0-1.2-0.1-1.7-0.3
			c-0.4-0.3-0.8-0.6-1.2-1c-0.3-0.4-0.6-0.8-0.7-1.4C228.6,317.2,228.6,316.6,228.6,315.9z M230,315.9c0,0.4,0,0.8,0.1,1.2
			s0.3,0.7,0.4,1.1c0.1,0.3,0.4,0.6,0.7,0.7c0.3,0.1,0.7,0.3,1.1,0.3c1.5,0,2.3-1.1,2.3-3.3c0-0.4,0-0.8-0.1-1.2s-0.3-0.7-0.4-1.1
			c-0.1-0.3-0.4-0.6-0.7-0.7c-0.3-0.1-0.7-0.3-1.1-0.3C230.8,312.6,230,313.7,230,315.9z"/>
		<path fill="#FFFFFF" d="M237.1,311.6h1.4V310l1.4-0.4v2.1h2.3v1.1h-2.3v4.8c0,0.6,0.1,1,0.3,1.2s0.4,0.4,0.8,0.4
			c0.3,0,0.6,0,0.8-0.1c0.3,0,0.4-0.1,0.7-0.3l0.3,1.1c-0.3,0.1-0.7,0.3-1,0.4c-0.4,0.1-0.8,0.1-1.2,0.1c-0.7,0-1.2-0.1-1.5-0.6
			s-0.4-1.1-0.4-2.1v-5.1h-1.4v-1.1H237.1z"/>
		<path fill="#FFFFFF" d="M250.4,319.5c-0.4,0.3-0.8,0.6-1.2,0.7c-0.6,0.1-1.1,0.3-1.7,0.3c-0.7,0-1.2-0.1-1.7-0.3
			c-0.6-0.3-0.8-0.6-1.2-1c-0.3-0.4-0.6-0.8-0.7-1.4c-0.1-0.6-0.3-1.2-0.3-1.9c0-1.5,0.3-2.6,1-3.5c0.7-0.8,1.7-1.1,2.9-1.1
			c0.4,0,0.8,0,1.2,0.1c0.4,0.1,0.7,0.3,1.1,0.6c0.3,0.3,0.6,0.6,0.8,1c0.1,0.4,0.3,1,0.3,1.8c0,0.4,0,0.8-0.1,1.2h-5.5
			c0,0.6,0,1,0.1,1.4s0.3,0.7,0.6,1c0.3,0.3,0.6,0.4,0.8,0.7c0.4,0.1,0.8,0.3,1.2,0.3s0.8-0.1,1.2-0.3c0.4-0.1,0.7-0.3,0.8-0.6
			L250.4,319.5z M247.4,312.6c-0.7,0-1.2,0.1-1.7,0.6s-0.7,1-0.7,1.8h4.3c0-0.8-0.1-1.5-0.6-1.8C248.5,312.8,248,312.6,247.4,312.6z
			"/>
		<path fill="#FFFFFF" d="M258.5,319.7c-0.4,0.3-0.7,0.4-1.2,0.6c-0.4,0.1-1,0.1-1.5,0.1c-0.7,0-1.2-0.1-1.7-0.3
			c-0.4-0.3-0.8-0.6-1.1-1s-0.6-0.8-0.7-1.4c-0.1-0.6-0.1-1.2-0.1-1.9c0-1.5,0.3-2.6,1-3.3c0.7-0.8,1.5-1.1,2.8-1.1
			c0.6,0,1,0,1.4,0.1s0.7,0.3,1.1,0.4l-0.4,1.2c-0.3-0.1-0.6-0.3-0.8-0.4s-0.7-0.1-1.1-0.1c-1.7,0-2.5,1.1-2.5,3.3
			c0,0.4,0,0.8,0.1,1.2s0.3,0.7,0.4,1.1c0.1,0.3,0.4,0.6,0.8,0.7c0.3,0.1,0.7,0.3,1.2,0.3c0.4,0,0.8,0,1.1-0.1s0.6-0.3,0.8-0.4
			L258.5,319.7z"/>
		<path fill="#FFFFFF" d="M259.4,311.6h1.4V310l1.4-0.4v2.1h2.3v1.1h-2.3v4.8c0,0.6,0.1,1,0.3,1.2s0.4,0.4,0.8,0.4
			c0.3,0,0.6,0,0.8-0.1c0.3,0,0.4-0.1,0.7-0.3l0.3,1.1c-0.3,0.1-0.7,0.3-1,0.4c-0.4,0.1-0.8,0.1-1.2,0.1c-0.7,0-1.2-0.1-1.5-0.6
			c-0.3-0.4-0.4-1.1-0.4-2.1v-5.1h-1.4v-1.1H259.4z"/>
		<path fill="#FFFFFF" d="M266.4,308.9c0-0.3,0.1-0.6,0.3-0.7s0.4-0.3,0.7-0.3s0.6,0.1,0.7,0.3s0.3,0.4,0.3,0.7s-0.1,0.6-0.3,0.7
			c-0.1,0.1-0.4,0.3-0.7,0.3s-0.6-0.1-0.7-0.3C266.4,309.4,266.4,309.2,266.4,308.9z M266.7,311.6h1.4v8.7h-1.4V311.6z"/>
		<path fill="#FFFFFF" d="M270.5,315.9c0-1.5,0.3-2.6,1-3.3c0.7-0.8,1.7-1.1,2.8-1.1c0.7,0,1.2,0.1,1.7,0.3c0.4,0.3,0.8,0.6,1.2,1
			c0.3,0.4,0.6,0.8,0.7,1.4c0.1,0.6,0.3,1.2,0.3,1.9c0,1.5-0.3,2.6-1,3.3c-0.7,0.8-1.7,1.1-2.8,1.1c-0.7,0-1.2-0.1-1.7-0.3
			c-0.4-0.3-0.8-0.6-1.2-1c-0.3-0.4-0.6-0.8-0.7-1.4C270.5,317.2,270.5,316.6,270.5,315.9z M271.9,315.9c0,0.4,0,0.8,0.1,1.2
			s0.3,0.7,0.4,1.1c0.1,0.3,0.4,0.6,0.7,0.7s0.7,0.3,1.1,0.3c1.5,0,2.3-1.1,2.3-3.3c0-0.4,0-0.8-0.1-1.2c-0.1-0.4-0.3-0.7-0.4-1.1
			c-0.1-0.3-0.4-0.6-0.7-0.7c-0.3-0.1-0.7-0.3-1.1-0.3C272.8,312.6,271.9,313.7,271.9,315.9z"/>
		<path fill="#FFFFFF" d="M285.9,320.2v-5c0-1-0.1-1.5-0.4-2.1c-0.3-0.4-0.7-0.7-1.4-0.7c-0.6,0-1.1,0.1-1.5,0.6
			c-0.4,0.3-0.7,0.7-0.8,1.2v5.9h-1.4v-8.7h1l0.3,1.1h0.1c0.3-0.4,0.7-0.7,1.1-1s1-0.4,1.7-0.4c0.4,0,0.8,0,1.2,0.1s0.7,0.3,0.8,0.6
			c0.3,0.3,0.4,0.7,0.6,1.1c0.1,0.4,0.1,1.1,0.1,1.8v5.2h-1.4V320.2z"/>
		<path fill="#FFFFFF" d="M298.3,317.9c0-0.4-0.1-0.6-0.3-0.8c-0.3-0.1-0.4-0.4-0.8-0.6c-0.3-0.1-0.7-0.3-1-0.4
			c-0.4-0.1-0.7-0.3-1-0.4s-0.6-0.4-0.8-0.7s-0.3-0.7-0.3-1.2c0-0.8,0.3-1.4,0.7-1.8s1.1-0.6,1.9-0.6c0.7,0,1.1,0,1.5,0.1
			c0.4,0.1,0.8,0.3,1.1,0.4l-0.3,1.1c-0.3-0.1-0.6-0.3-1-0.3c-0.4-0.1-0.8-0.1-1.2-0.1c-0.6,0-0.8,0.1-1.1,0.3s-0.4,0.4-0.4,1
			c0,0.3,0.1,0.6,0.3,0.7c0.3,0.1,0.4,0.3,0.8,0.4c0.3,0.1,0.7,0.3,1,0.4c0.4,0.1,0.7,0.3,1,0.6c0.3,0.3,0.6,0.4,0.8,0.8
			c0.3,0.4,0.3,0.7,0.3,1.2c0,0.4,0,0.7-0.1,1.1c-0.1,0.3-0.3,0.6-0.6,0.8c-0.3,0.3-0.6,0.4-1,0.6c-0.4,0.1-0.8,0.1-1.4,0.1
			c-0.7,0-1.2,0-1.7-0.1c-0.4-0.1-0.8-0.3-1.1-0.4l0.4-1.2c0.3,0.1,0.6,0.3,1.1,0.4c0.6,0.1,0.8,0.1,1.2,0.1c0.6,0,1-0.1,1.2-0.3
			C298.2,318.8,298.3,318.4,298.3,317.9z"/>
		<path fill="#FFFFFF" d="M301.3,315.9c0-1.5,0.3-2.6,1-3.3c0.7-0.8,1.7-1.1,2.8-1.1c0.7,0,1.2,0.1,1.7,0.3c0.4,0.3,0.8,0.6,1.2,1
			c0.3,0.4,0.6,0.8,0.7,1.4c0.1,0.6,0.3,1.2,0.3,1.9c0,1.5-0.3,2.6-1,3.3c-0.7,0.8-1.7,1.1-2.8,1.1c-0.7,0-1.2-0.1-1.7-0.3
			c-0.4-0.3-0.8-0.6-1.2-1c-0.3-0.4-0.6-0.8-0.7-1.4C301.3,317.2,301.3,316.6,301.3,315.9z M302.7,315.9c0,0.4,0,0.8,0.1,1.2
			c0.1,0.4,0.3,0.7,0.4,1.1c0.1,0.3,0.4,0.6,0.7,0.7c0.3,0.1,0.7,0.3,1.1,0.3c1.5,0,2.3-1.1,2.3-3.3c0-0.4,0-0.8-0.1-1.2
			c-0.1-0.4-0.3-0.7-0.4-1.1c-0.1-0.3-0.4-0.6-0.7-0.7c-0.3-0.1-0.7-0.3-1.1-0.3C303.5,312.6,302.7,313.7,302.7,315.9z"/>
		<path fill="#FFFFFF" d="M312.6,318.1c0,0.4,0.1,0.7,0.3,0.8s0.3,0.3,0.6,0.3c0.1,0,0.3,0,0.6,0c0.1,0,0.4-0.1,0.6-0.1l0.1,1.1
			c-0.1,0.1-0.4,0.1-0.8,0.3c-0.3,0-0.6,0.1-0.8,0.1c-0.6,0-1-0.1-1.2-0.4c-0.3-0.3-0.6-0.8-0.6-1.5v-10.4h1.4L312.6,318.1
			L312.6,318.1z"/>
		<path fill="#FFFFFF" d="M317.3,311.6v5c0,0.4,0,0.8,0.1,1.2c0,0.3,0.1,0.7,0.3,0.8c0.1,0.3,0.3,0.4,0.6,0.6s0.6,0.1,0.8,0.1
			s0.6,0,0.8-0.1s0.4-0.3,0.7-0.4c0.1-0.1,0.4-0.4,0.6-0.6c0.1-0.1,0.3-0.4,0.4-0.7v-5.8h1.4v6.2c0,0.4,0,0.8,0,1.2s0.1,0.8,0.1,1.1
			h-1l-0.4-1.4h-0.1c-0.3,0.4-0.7,0.8-1.1,1.1s-1,0.4-1.7,0.4c-0.4,0-0.8,0-1.2-0.1c-0.4-0.1-0.7-0.3-0.8-0.6
			c-0.3-0.3-0.4-0.7-0.6-1.1s-0.1-1.1-0.1-1.8v-5.2H317.3z"/>
		<path fill="#FFFFFF" d="M324.4,311.6h1.4V310l1.4-0.4v2.1h2.3v1.1h-2.3v4.8c0,0.6,0.1,1,0.3,1.2s0.4,0.4,0.8,0.4
			c0.3,0,0.6,0,0.8-0.1c0.3,0,0.4-0.1,0.7-0.3l0.3,1.1c-0.3,0.1-0.7,0.3-1,0.4c-0.4,0.1-0.8,0.1-1.2,0.1c-0.7,0-1.2-0.1-1.5-0.6
			s-0.4-1.1-0.4-2.1v-5.1h-1.4v-1.1H324.4z"/>
		<path fill="#FFFFFF" d="M331.4,308.9c0-0.3,0.1-0.6,0.3-0.7c0.1-0.1,0.4-0.3,0.7-0.3s0.6,0.1,0.7,0.3s0.3,0.4,0.3,0.7
			s-0.1,0.6-0.3,0.7c-0.1,0.1-0.4,0.3-0.7,0.3s-0.6-0.1-0.7-0.3C331.4,309.4,331.4,309.2,331.4,308.9z M331.7,311.6h1.4v8.7h-1.4
			V311.6z"/>
		<path fill="#FFFFFF" d="M335.6,315.9c0-1.5,0.3-2.6,1-3.3c0.7-0.8,1.7-1.1,2.8-1.1c0.7,0,1.2,0.1,1.7,0.3c0.4,0.3,0.8,0.6,1.2,1
			c0.3,0.4,0.6,0.8,0.7,1.4c0.1,0.6,0.3,1.2,0.3,1.9c0,1.5-0.3,2.6-1,3.3c-0.7,0.8-1.7,1.1-2.8,1.1c-0.7,0-1.2-0.1-1.7-0.3
			c-0.4-0.3-0.8-0.6-1.2-1c-0.3-0.4-0.6-0.8-0.7-1.4C335.6,317.2,335.6,316.6,335.6,315.9z M336.9,315.9c0,0.4,0,0.8,0.1,1.2
			c0.1,0.4,0.3,0.7,0.4,1.1c0.1,0.3,0.4,0.6,0.7,0.7c0.3,0.1,0.7,0.3,1.1,0.3c1.5,0,2.3-1.1,2.3-3.3c0-0.4,0-0.8-0.1-1.2
			c-0.1-0.4-0.3-0.7-0.4-1.1c-0.1-0.3-0.4-0.6-0.7-0.7s-0.7-0.3-1.1-0.3C337.8,312.6,336.9,313.7,336.9,315.9z"/>
		<path fill="#FFFFFF" d="M350.9,320.2v-5c0-1-0.1-1.5-0.4-2.1c-0.3-0.4-0.7-0.7-1.4-0.7c-0.6,0-1.1,0.1-1.5,0.6
			c-0.4,0.3-0.7,0.7-0.8,1.2v5.9h-1.4v-8.7h1l0.3,1.1h0.1c0.3-0.4,0.7-0.7,1.1-1s1-0.4,1.7-0.4c0.4,0,0.8,0,1.2,0.1
			c0.4,0.1,0.7,0.3,0.8,0.6c0.3,0.3,0.4,0.7,0.6,1.1s0.1,1.1,0.1,1.8v5.2h-1.4V320.2z"/>
	</g>
	<g>
		<path fill="#FFFFFF" d="M183.4,278.6c0,0.7-0.1,1.4-0.3,2.1c-0.2,0.7-0.6,1.4-1,2s-1,1.2-1.7,1.6c-0.7,0.5-1.5,0.8-2.5,1.1v0.2
			c0.8,0.1,1.6,0.4,2.4,0.7c0.8,0.3,1.4,0.8,2,1.4c0.6,0.6,1.1,1.3,1.4,2.1c0.4,0.8,0.5,1.8,0.5,3c0,1.5-0.3,2.8-0.9,3.9
			c-0.6,1.1-1.4,2-2.5,2.7c-1,0.7-2.2,1.2-3.5,1.5c-1.3,0.3-2.6,0.5-4,0.5c-0.5,0-1,0-1.7,0c-0.6,0-1.3,0-2-0.1s-1.4-0.1-2.1-0.2
			c-0.7-0.1-1.3-0.2-1.8-0.3v-28.8c1-0.2,2.2-0.3,3.6-0.4c1.4-0.1,2.9-0.2,4.5-0.2c1.1,0,2.2,0.1,3.3,0.3c1.1,0.2,2.1,0.5,3.1,1
			c0.9,0.5,1.7,1.2,2.3,2.1C183.1,276,183.4,277.1,183.4,278.6z M171.4,284.8c0.5,0,1,0,1.7,0c0.7,0,1.2-0.1,1.7-0.1
			c0.7-0.2,1.3-0.5,1.9-0.8c0.6-0.3,1.1-0.7,1.6-1.1c0.5-0.4,0.8-0.9,1.1-1.5c0.3-0.6,0.4-1.2,0.4-1.9c0-0.9-0.2-1.7-0.5-2.3
			c-0.3-0.6-0.8-1.1-1.4-1.4c-0.6-0.4-1.3-0.6-2-0.8c-0.8-0.2-1.5-0.2-2.3-0.2c-0.9,0-1.8,0-2.5,0.1c-0.8,0-1.3,0.1-1.7,0.2v9.9
			H171.4z M173.7,298.5c0.9,0,1.8-0.1,2.6-0.3c0.8-0.2,1.6-0.5,2.2-1c0.6-0.5,1.1-1,1.5-1.7c0.4-0.7,0.6-1.5,0.6-2.4
			c0-1.1-0.2-2.1-0.7-2.8c-0.5-0.7-1.1-1.2-1.8-1.6c-0.7-0.4-1.6-0.7-2.5-0.8c-0.9-0.1-1.8-0.2-2.8-0.2h-3.6v10.5
			c0.2,0.1,0.5,0.1,0.8,0.1c0.4,0,0.8,0.1,1.2,0.1s0.8,0,1.3,0.1C173,298.5,173.4,298.5,173.7,298.5z"/>
		<path fill="#FFFFFF" d="M199.7,283.5c-0.8-0.3-1.6-0.4-2.4-0.4c-1.2,0-2.1,0.3-2.8,1c-0.7,0.7-1.1,1.5-1.3,2.5v14.6h-3.3v-20.9
			h2.3l0.6,2.5h0.2c0.5-0.9,1.2-1.7,1.9-2.2c0.7-0.5,1.7-0.8,2.8-0.8c0.8,0,1.7,0.1,2.7,0.4L199.7,283.5z"/>
		<path fill="#FFFFFF" d="M203.7,281.8c1.1-0.6,2.3-1.1,3.7-1.4c1.4-0.3,2.9-0.5,4.4-0.5c1.4,0,2.6,0.2,3.5,0.6
			c0.9,0.4,1.5,0.9,2,1.5c0.5,0.6,0.8,1.3,0.9,2.1c0.2,0.8,0.2,1.5,0.2,2.3c0,1.7,0,3.3-0.1,4.9c-0.1,1.6-0.1,3.1-0.1,4.5
			c0,1,0,2,0.1,2.9c0.1,0.9,0.2,1.8,0.5,2.5h-2.5l-0.9-2.9h-0.2c-0.3,0.4-0.6,0.8-0.9,1.1c-0.4,0.4-0.8,0.7-1.4,1
			c-0.5,0.3-1.1,0.5-1.8,0.7c-0.7,0.2-1.5,0.3-2.4,0.3c-0.9,0-1.7-0.1-2.5-0.4c-0.8-0.3-1.4-0.7-2-1.2c-0.6-0.5-1-1.1-1.3-1.9
			s-0.5-1.5-0.5-2.5c0-1.2,0.3-2.2,0.8-3.1c0.5-0.8,1.2-1.5,2.1-2c0.9-0.5,2-0.8,3.3-1c1.3-0.2,2.7-0.3,4.2-0.3c0.4,0,0.8,0,1.1,0
			c0.4,0,0.8,0,1.1,0.1c0.1-0.8,0.1-1.6,0.1-2.3c0-1.5-0.3-2.6-0.9-3.2c-0.6-0.6-1.7-0.9-3.3-0.9c-0.5,0-1,0-1.5,0.1
			c-0.5,0.1-1.1,0.2-1.7,0.3c-0.6,0.1-1.1,0.3-1.6,0.5c-0.5,0.2-1,0.4-1.4,0.6L203.7,281.8z M209.6,298.6c0.8,0,1.5-0.1,2.1-0.3
			c0.6-0.2,1.1-0.5,1.6-0.8c0.4-0.3,0.8-0.7,1.1-1.1s0.5-0.8,0.6-1.1v-3.5c-0.4,0-0.8,0-1.2-0.1c-0.4,0-0.8,0-1.2,0
			c-0.9,0-1.7,0-2.5,0.1c-0.8,0.1-1.5,0.3-2.2,0.5c-0.6,0.3-1.1,0.6-1.5,1.1s-0.6,1-0.6,1.7c0,1,0.3,1.8,1,2.4
			C207.7,298.2,208.6,298.6,209.6,298.6z"/>
		<path fill="#FFFFFF" d="M238.2,301.1v-11.9c0-2.2-0.3-3.8-0.9-4.9c-0.6-1.1-1.8-1.6-3.4-1.6c-1.5,0-2.7,0.4-3.7,1.2
			c-1,0.8-1.6,1.8-2,3v14.3h-3.3v-20.9h2.3l0.6,2.5h0.2c0.7-0.9,1.6-1.6,2.7-2.2c1.1-0.6,2.5-0.9,4-0.9c1.1,0,2.1,0.1,3,0.4
			c0.9,0.3,1.6,0.7,2.1,1.4c0.6,0.7,1,1.6,1.3,2.7c0.3,1.1,0.4,2.6,0.4,4.3v12.6H238.2z"/>
		<path fill="#FFFFFF" d="M263.6,294c0,1.4,0,2.7,0,3.9c0,1.2,0.2,2.3,0.4,3.4h-2.3l-0.8-3h-0.2c-0.6,1-1.4,1.8-2.4,2.4
			c-1.1,0.6-2.3,1-3.7,1c-2.8,0-4.8-0.9-6.2-2.6c-1.4-1.8-2-4.5-2-8.2c0-3.6,0.8-6.3,2.5-8.1s4-2.8,7-2.8c1,0,1.8,0.1,2.4,0.2
			c0.6,0.1,1.2,0.3,1.9,0.5v-8.7h3.3V294z M255.2,298.7c1.4,0,2.5-0.4,3.4-1.1c0.8-0.7,1.4-1.9,1.7-3.4v-10.4
			c-0.5-0.4-1.1-0.7-1.7-0.8c-0.6-0.2-1.5-0.3-2.5-0.3c-1.9,0-3.4,0.6-4.5,1.9c-1.1,1.3-1.6,3.3-1.6,6.1c0,1.1,0.1,2.2,0.3,3.2
			c0.2,1,0.5,1.8,0.9,2.5c0.4,0.7,1,1.2,1.6,1.6C253.4,298.5,254.2,298.7,255.2,298.7z"/>
		<path fill="#FFFFFF" d="M276.1,292.5l1.2,4h0l1-4l4.7-12.1h3.6l-8.9,21.3h-1.4l-9.1-21.3h3.8L276.1,292.5z"/>
		<path fill="#FFFFFF" d="M290.2,273.9c0-0.6,0.2-1.2,0.6-1.6c0.4-0.5,1-0.7,1.6-0.7c0.7,0,1.2,0.2,1.7,0.7c0.5,0.5,0.7,1,0.7,1.6
			c0,0.6-0.2,1.2-0.7,1.6c-0.5,0.4-1,0.6-1.7,0.6c-0.7,0-1.2-0.2-1.6-0.6C290.4,275.1,290.2,274.6,290.2,273.9z M290.9,280.3h3.3
			v20.9h-3.3V280.3z"/>
		<path fill="#FFFFFF" d="M299.9,298.2l9.6-13.3l1.8-1.8h-11.4v-2.9h14.9v2.9l-9.7,13.4l-1.7,1.6h11.4v2.9h-14.9V298.2z"/>
		<path fill="#FFFFFF" d="M318.2,290.7c0-3.5,0.8-6.2,2.4-8.1c1.6-1.9,3.8-2.8,6.8-2.8c1.6,0,2.9,0.3,4.1,0.8
			c1.2,0.5,2.1,1.3,2.9,2.2c0.8,1,1.3,2.1,1.7,3.5c0.4,1.4,0.5,2.8,0.5,4.5c0,3.5-0.8,6.2-2.4,8.1c-1.6,1.9-3.8,2.8-6.8,2.8
			c-1.6,0-2.9-0.3-4.1-0.8c-1.2-0.5-2.1-1.3-2.9-2.2c-0.8-1-1.3-2.1-1.7-3.5C318.4,293.8,318.2,292.3,318.2,290.7z M321.6,290.7
			c0,1.1,0.1,2.1,0.3,3c0.2,1,0.5,1.8,1,2.5c0.4,0.7,1,1.3,1.8,1.8c0.7,0.4,1.6,0.7,2.6,0.7c3.8,0,5.7-2.6,5.7-8
			c0-1.1-0.1-2.1-0.3-3.1c-0.2-1-0.5-1.8-1-2.5c-0.4-0.7-1-1.3-1.8-1.7c-0.7-0.4-1.6-0.6-2.6-0.6
			C323.5,282.7,321.6,285.3,321.6,290.7z"/>
		<path fill="#FFFFFF" d="M351.6,283.5c-0.8-0.3-1.6-0.4-2.4-0.4c-1.2,0-2.1,0.3-2.8,1c-0.7,0.7-1.1,1.5-1.3,2.5v14.6h-3.3v-20.9
			h2.3l0.6,2.5h0.2c0.5-0.9,1.2-1.7,1.9-2.2s1.7-0.8,2.8-0.8c0.8,0,1.7,0.1,2.7,0.4L351.6,283.5z"/>
	</g>
</g>
</svg>
