<?xml version="1.0" encoding="utf-8"?>
<!-- Generator: Adobe Illustrator 18.0.0, SVG Export Plug-In . SVG Version: 6.00 Build 0)  -->
<!DOCTYPE svg PUBLIC "-//W3C//DTD SVG 1.1//EN" "http://www.w3.org/Graphics/SVG/1.1/DTD/svg11.dtd">
<svg version="1.1" id="Layer_1" xmlns="http://www.w3.org/2000/svg" xmlns:xlink="http://www.w3.org/1999/xlink" x="0px" y="0px"
	 viewBox="0 0 500 500" enable-background="new 0 0 500 500" xml:space="preserve">
<g>
	<path fill="#F1832B" d="M71.4,236.9c2.9-0.7,5.9-0.8,8.8-0.3c3.3,0.5,6.4,1.8,9.3,3.7c3.4,2.3,6.1,5.4,8.1,9.1
		c0.1,0.3,0.3,0.5,0.3,0.8s-0.1,0.4-0.3,0.7c-1.9,3.8-4.8,7.1-8.3,9.4c-1.5-1.5-3.1-3.1-4.8-4.8c0.7-0.8,1.1-1.9,1.4-2.9
		c0.3-1.4,0.4-3,0.1-4.4c-0.3-1.6-1.2-3.3-2.3-4.5c-1.4-1.4-3-2.5-4.8-2.9c-1.4-0.3-2.7-0.3-4.1,0c-1.9,0.4-3.7,1.4-5,3
		c-0.8,0.8-1.4,1.8-1.8,2.9c-0.8,2.2-0.8,4.8,0,7c0.8,1.9,2,3.7,3.8,4.6c1.8,1.1,3.8,1.5,5.9,1.4c1.6-0.1,3.1-0.7,4.6-1.6
		c1.4,1.4,2.6,2.6,4,4c-2.3,0.9-4.8,1.6-7.2,1.9c-3.1,0.3-6.1,0-9-0.9c-1.9-0.7-3.8-1.5-5.6-2.6c-3.7-2.5-6.7-5.9-8.6-9.8
		c-0.1-0.1-0.1-0.3-0.1-0.5c0-0.2,0.1-0.3,0.3-0.4c1.5-3.3,4-6.1,6.8-8.5C65.2,239,68.1,237.6,71.4,236.9z"/>
	<path fill="#F1832B" d="M76.2,244.1c1.1,0,2.2,0.3,3.1,0.7c0.9,0.5,1.8,1.4,2.5,2.3c0.4,0.8,0.8,1.6,0.8,2.6
		c0.1,1.1-0.1,2.3-0.7,3.3c-0.7,1.4-1.9,2.5-3.1,2.9c-1.1,0.4-2.2,0.5-3.4,0.3c-0.9-0.3-1.9-0.7-2.7-1.4c-0.8-0.7-1.4-1.4-1.8-2.5
		c-0.4-1.2-0.5-2.5-0.3-3.7c0.3-1.1,0.8-2,1.6-2.9C73.3,244.6,74.7,244.1,76.2,244.1z"/>
</g>
<g>
	<path d="M113.9,245.3c0,0.4-0.1,0.7-0.2,1.1c-0.1,0.4-0.3,0.7-0.5,1c-0.2,0.3-0.5,0.6-0.9,0.8c-0.4,0.2-0.8,0.4-1.2,0.5v0.1
		c0.4,0.1,0.8,0.2,1.2,0.4c0.4,0.2,0.7,0.4,1,0.7c0.3,0.3,0.5,0.7,0.7,1.1c0.2,0.4,0.3,0.9,0.3,1.5c0,0.8-0.2,1.4-0.5,2
		c-0.3,0.6-0.7,1-1.2,1.4c-0.5,0.4-1.1,0.6-1.8,0.8c-0.7,0.2-1.3,0.3-2,0.3c-0.2,0-0.5,0-0.8,0c-0.3,0-0.7,0-1,0
		c-0.4,0-0.7,0-1.1-0.1c-0.4,0-0.7-0.1-0.9-0.2v-14.5c0.5-0.1,1.1-0.2,1.8-0.2c0.7-0.1,1.4-0.1,2.3-0.1c0.5,0,1.1,0,1.7,0.1
		c0.6,0.1,1.1,0.3,1.5,0.5c0.5,0.3,0.8,0.6,1.1,1.1C113.8,244,113.9,244.6,113.9,245.3z M107.9,248.5c0.2,0,0.5,0,0.9,0
		c0.3,0,0.6,0,0.8-0.1c0.3-0.1,0.7-0.2,0.9-0.4c0.3-0.2,0.6-0.4,0.8-0.6c0.2-0.2,0.4-0.5,0.5-0.8c0.1-0.3,0.2-0.6,0.2-0.9
		c0-0.5-0.1-0.8-0.3-1.1c-0.2-0.3-0.4-0.5-0.7-0.7c-0.3-0.2-0.6-0.3-1-0.4s-0.8-0.1-1.2-0.1c-0.5,0-0.9,0-1.3,0
		c-0.4,0-0.7,0.1-0.9,0.1v5H107.9z M109,255.4c0.4,0,0.9-0.1,1.3-0.2c0.4-0.1,0.8-0.3,1.1-0.5c0.3-0.2,0.6-0.5,0.8-0.9
		c0.2-0.3,0.3-0.7,0.3-1.2c0-0.6-0.1-1-0.3-1.4c-0.2-0.4-0.5-0.6-0.9-0.8c-0.4-0.2-0.8-0.3-1.3-0.4c-0.5-0.1-0.9-0.1-1.4-0.1h-1.8
		v5.3c0.1,0,0.2,0,0.4,0.1c0.2,0,0.4,0,0.6,0c0.2,0,0.4,0,0.7,0C108.7,255.4,108.9,255.4,109,255.4z"/>
	<path d="M122.1,247.8c-0.4-0.1-0.8-0.2-1.2-0.2c-0.6,0-1.1,0.2-1.4,0.5c-0.4,0.3-0.6,0.7-0.7,1.3v7.4h-1.7v-10.5h1.2l0.3,1.3h0.1
		c0.3-0.5,0.6-0.8,1-1.1c0.4-0.3,0.8-0.4,1.4-0.4c0.4,0,0.9,0.1,1.4,0.2L122.1,247.8z"/>
	<path d="M124.1,247c0.5-0.3,1.2-0.6,1.9-0.7c0.7-0.2,1.4-0.2,2.2-0.2c0.7,0,1.3,0.1,1.8,0.3c0.4,0.2,0.8,0.5,1,0.8
		c0.2,0.3,0.4,0.7,0.5,1c0.1,0.4,0.1,0.8,0.1,1.1c0,0.8,0,1.7-0.1,2.5c0,0.8-0.1,1.6-0.1,2.3c0,0.5,0,1,0.1,1.5
		c0,0.5,0.1,0.9,0.2,1.3h-1.2l-0.4-1.5h-0.1c-0.1,0.2-0.3,0.4-0.5,0.6c-0.2,0.2-0.4,0.4-0.7,0.5c-0.3,0.1-0.6,0.3-0.9,0.4
		c-0.4,0.1-0.8,0.1-1.2,0.1c-0.4,0-0.9-0.1-1.3-0.2c-0.4-0.1-0.7-0.3-1-0.6c-0.3-0.3-0.5-0.6-0.7-0.9c-0.2-0.4-0.2-0.8-0.2-1.2
		c0-0.6,0.1-1.1,0.4-1.5c0.3-0.4,0.6-0.7,1.1-1c0.5-0.2,1-0.4,1.6-0.5c0.6-0.1,1.3-0.2,2.1-0.2c0.2,0,0.4,0,0.6,0c0.2,0,0.4,0,0.6,0
		c0-0.4,0.1-0.8,0.1-1.1c0-0.8-0.2-1.3-0.5-1.6c-0.3-0.3-0.9-0.5-1.7-0.5c-0.2,0-0.5,0-0.8,0.1c-0.3,0-0.6,0.1-0.8,0.2
		c-0.3,0.1-0.6,0.1-0.8,0.2c-0.3,0.1-0.5,0.2-0.7,0.3L124.1,247z M127.1,255.4c0.4,0,0.7-0.1,1.1-0.2c0.3-0.1,0.6-0.2,0.8-0.4
		c0.2-0.2,0.4-0.3,0.6-0.5c0.1-0.2,0.3-0.4,0.3-0.6V252c-0.2,0-0.4,0-0.6,0c-0.2,0-0.4,0-0.6,0c-0.4,0-0.9,0-1.3,0.1
		c-0.4,0-0.8,0.1-1.1,0.3c-0.3,0.1-0.6,0.3-0.8,0.5c-0.2,0.2-0.3,0.5-0.3,0.9c0,0.5,0.2,0.9,0.5,1.2
		C126.1,255.3,126.6,255.4,127.1,255.4z"/>
	<path d="M141.5,256.7v-6c0-1.1-0.2-1.9-0.5-2.5c-0.3-0.6-0.9-0.8-1.7-0.8c-0.7,0-1.4,0.2-1.8,0.6c-0.5,0.4-0.8,0.9-1,1.5v7.2h-1.7
		v-10.5h1.2l0.3,1.3h0.1c0.3-0.4,0.8-0.8,1.4-1.1c0.6-0.3,1.2-0.4,2-0.4c0.6,0,1.1,0.1,1.5,0.2c0.4,0.1,0.8,0.4,1.1,0.7
		c0.3,0.3,0.5,0.8,0.7,1.4c0.1,0.6,0.2,1.3,0.2,2.2v6.4H141.5z"/>
	<path d="M154.3,253.1c0,0.7,0,1.4,0,1.9c0,0.6,0.1,1.2,0.2,1.7h-1.1l-0.4-1.5h-0.1c-0.3,0.5-0.7,0.9-1.2,1.2
		c-0.5,0.3-1.2,0.5-1.9,0.5c-1.4,0-2.4-0.4-3.1-1.3c-0.7-0.9-1-2.3-1-4.1c0-1.8,0.4-3.2,1.3-4.1c0.8-0.9,2-1.4,3.5-1.4
		c0.5,0,0.9,0,1.2,0.1c0.3,0.1,0.6,0.1,1,0.3V242h1.7V253.1z M150.1,255.5c0.7,0,1.3-0.2,1.7-0.6c0.4-0.4,0.7-0.9,0.9-1.7V248
		c-0.3-0.2-0.5-0.3-0.9-0.4c-0.3-0.1-0.8-0.1-1.3-0.1c-1,0-1.7,0.3-2.3,1c-0.5,0.6-0.8,1.7-0.8,3.1c0,0.6,0,1.1,0.1,1.6
		c0.1,0.5,0.2,0.9,0.5,1.3c0.2,0.4,0.5,0.6,0.8,0.8C149.2,255.4,149.6,255.5,150.1,255.5z"/>
	<path d="M160.6,252.4l0.6,2h0l0.5-2l2.4-6.1h1.8l-4.5,10.8h-0.7l-4.6-10.8h1.9L160.6,252.4z"/>
	<path d="M167.7,243c0-0.3,0.1-0.6,0.3-0.8c0.2-0.2,0.5-0.3,0.8-0.3c0.3,0,0.6,0.1,0.9,0.3c0.2,0.2,0.4,0.5,0.4,0.8
		c0,0.3-0.1,0.6-0.4,0.8c-0.2,0.2-0.5,0.3-0.9,0.3c-0.3,0-0.6-0.1-0.8-0.3C167.8,243.6,167.7,243.3,167.7,243z M168.1,246.2h1.7
		v10.5h-1.7V246.2z"/>
	<path d="M172.6,255.2l4.9-6.7l0.9-0.9h-5.7v-1.5h7.5v1.5l-4.9,6.8l-0.9,0.8h5.7v1.5h-7.5V255.2z"/>
	<path d="M181.8,251.5c0-1.8,0.4-3.1,1.2-4.1c0.8-0.9,1.9-1.4,3.4-1.4c0.8,0,1.5,0.1,2.1,0.4c0.6,0.3,1.1,0.6,1.4,1.1
		c0.4,0.5,0.7,1.1,0.8,1.7c0.2,0.7,0.3,1.4,0.3,2.3c0,1.8-0.4,3.1-1.2,4.1c-0.8,0.9-1.9,1.4-3.4,1.4c-0.8,0-1.5-0.1-2.1-0.4
		c-0.6-0.3-1.1-0.6-1.4-1.1c-0.4-0.5-0.7-1.1-0.8-1.7C181.9,253,181.8,252.3,181.8,251.5z M183.6,251.5c0,0.5,0.1,1,0.2,1.5
		c0.1,0.5,0.3,0.9,0.5,1.3c0.2,0.4,0.5,0.7,0.9,0.9c0.4,0.2,0.8,0.3,1.3,0.3c1.9,0,2.9-1.3,2.9-4c0-0.5-0.1-1.1-0.2-1.6
		c-0.1-0.5-0.3-0.9-0.5-1.3c-0.2-0.4-0.5-0.7-0.9-0.9c-0.4-0.2-0.8-0.3-1.3-0.3C184.5,247.4,183.6,248.7,183.6,251.5z"/>
	<path d="M198.7,247.8c-0.4-0.1-0.8-0.2-1.2-0.2c-0.6,0-1.1,0.2-1.4,0.5c-0.4,0.3-0.6,0.7-0.7,1.3v7.4h-1.7v-10.5h1.2l0.3,1.3h0.1
		c0.3-0.5,0.6-0.8,1-1.1c0.4-0.3,0.8-0.4,1.4-0.4c0.4,0,0.9,0.1,1.4,0.2L198.7,247.8z"/>
	<path d="M204.4,249.9h5.1v1.6h-5.1V249.9z"/>
	<path d="M225.4,245.3c0,0.4-0.1,0.7-0.2,1.1c-0.1,0.4-0.3,0.7-0.5,1c-0.2,0.3-0.5,0.6-0.9,0.8c-0.4,0.2-0.8,0.4-1.2,0.5v0.1
		c0.4,0.1,0.8,0.2,1.2,0.4c0.4,0.2,0.7,0.4,1,0.7c0.3,0.3,0.5,0.7,0.7,1.1c0.2,0.4,0.3,0.9,0.3,1.5c0,0.8-0.2,1.4-0.5,2
		c-0.3,0.6-0.7,1-1.2,1.4c-0.5,0.4-1.1,0.6-1.8,0.8c-0.7,0.2-1.3,0.3-2,0.3c-0.2,0-0.5,0-0.8,0c-0.3,0-0.7,0-1,0
		c-0.4,0-0.7,0-1.1-0.1c-0.4,0-0.7-0.1-0.9-0.2v-14.5c0.5-0.1,1.1-0.2,1.8-0.2c0.7-0.1,1.4-0.1,2.3-0.1c0.5,0,1.1,0,1.7,0.1
		c0.6,0.1,1.1,0.3,1.5,0.5c0.5,0.3,0.8,0.6,1.1,1.1C225.2,244,225.4,244.6,225.4,245.3z M219.3,248.5c0.2,0,0.5,0,0.9,0
		c0.3,0,0.6,0,0.8-0.1c0.3-0.1,0.7-0.2,0.9-0.4c0.3-0.2,0.6-0.4,0.8-0.6c0.2-0.2,0.4-0.5,0.5-0.8c0.1-0.3,0.2-0.6,0.2-0.9
		c0-0.5-0.1-0.8-0.3-1.1c-0.2-0.3-0.4-0.5-0.7-0.7c-0.3-0.2-0.6-0.3-1-0.4s-0.8-0.1-1.2-0.1c-0.5,0-0.9,0-1.3,0
		c-0.4,0-0.7,0.1-0.9,0.1v5H219.3z M220.5,255.4c0.4,0,0.9-0.1,1.3-0.2c0.4-0.1,0.8-0.3,1.1-0.5c0.3-0.2,0.6-0.5,0.8-0.9
		c0.2-0.3,0.3-0.7,0.3-1.2c0-0.6-0.1-1-0.3-1.4c-0.2-0.4-0.5-0.6-0.9-0.8c-0.4-0.2-0.8-0.3-1.3-0.4c-0.5-0.1-0.9-0.1-1.4-0.1h-1.8
		v5.3c0.1,0,0.2,0,0.4,0.1c0.2,0,0.4,0,0.6,0c0.2,0,0.4,0,0.7,0C220.1,255.4,220.3,255.4,220.5,255.4z"/>
	<path d="M233.6,247.8c-0.4-0.1-0.8-0.2-1.2-0.2c-0.6,0-1.1,0.2-1.4,0.5c-0.4,0.3-0.6,0.7-0.7,1.3v7.4h-1.7v-10.5h1.2l0.3,1.3h0.1
		c0.3-0.5,0.6-0.8,1-1.1c0.4-0.3,0.8-0.4,1.4-0.4c0.4,0,0.9,0.1,1.4,0.2L233.6,247.8z"/>
	<path d="M235.6,247c0.5-0.3,1.2-0.6,1.9-0.7c0.7-0.2,1.4-0.2,2.2-0.2c0.7,0,1.3,0.1,1.8,0.3c0.4,0.2,0.8,0.5,1,0.8
		c0.2,0.3,0.4,0.7,0.5,1c0.1,0.4,0.1,0.8,0.1,1.1c0,0.8,0,1.7-0.1,2.5c0,0.8-0.1,1.6-0.1,2.3c0,0.5,0,1,0.1,1.5
		c0,0.5,0.1,0.9,0.2,1.3H242l-0.4-1.5h-0.1c-0.1,0.2-0.3,0.4-0.5,0.6c-0.2,0.2-0.4,0.4-0.7,0.5c-0.3,0.1-0.6,0.3-0.9,0.4
		c-0.4,0.1-0.8,0.1-1.2,0.1c-0.4,0-0.9-0.1-1.3-0.2c-0.4-0.1-0.7-0.3-1-0.6c-0.3-0.3-0.5-0.6-0.7-0.9c-0.2-0.4-0.2-0.8-0.2-1.2
		c0-0.6,0.1-1.1,0.4-1.5c0.3-0.4,0.6-0.7,1.1-1c0.5-0.2,1-0.4,1.6-0.5c0.6-0.1,1.3-0.2,2.1-0.2c0.2,0,0.4,0,0.6,0c0.2,0,0.4,0,0.6,0
		c0-0.4,0.1-0.8,0.1-1.1c0-0.8-0.2-1.3-0.5-1.6c-0.3-0.3-0.9-0.5-1.7-0.5c-0.2,0-0.5,0-0.8,0.1c-0.3,0-0.6,0.1-0.8,0.2
		c-0.3,0.1-0.6,0.1-0.8,0.2c-0.3,0.1-0.5,0.2-0.7,0.3L235.6,247z M238.6,255.4c0.4,0,0.7-0.1,1.1-0.2c0.3-0.1,0.6-0.2,0.8-0.4
		c0.2-0.2,0.4-0.3,0.6-0.5c0.1-0.2,0.3-0.4,0.3-0.6V252c-0.2,0-0.4,0-0.6,0c-0.2,0-0.4,0-0.6,0c-0.4,0-0.9,0-1.3,0.1
		c-0.4,0-0.8,0.1-1.1,0.3s-0.6,0.3-0.8,0.5c-0.2,0.2-0.3,0.5-0.3,0.9c0,0.5,0.2,0.9,0.5,1.2C237.6,255.3,238,255.4,238.6,255.4z"/>
	<path d="M253,256.7v-6c0-1.1-0.2-1.9-0.5-2.5c-0.3-0.6-0.9-0.8-1.7-0.8c-0.7,0-1.4,0.2-1.8,0.6c-0.5,0.4-0.8,0.9-1,1.5v7.2h-1.7
		v-10.5h1.2l0.3,1.3h0.1c0.3-0.4,0.8-0.8,1.4-1.1c0.6-0.3,1.2-0.4,2-0.4c0.6,0,1.1,0.1,1.5,0.2c0.4,0.1,0.8,0.4,1.1,0.7
		c0.3,0.3,0.5,0.8,0.7,1.4c0.1,0.6,0.2,1.3,0.2,2.2v6.4H253z"/>
	<path d="M265.8,253.1c0,0.7,0,1.4,0,1.9c0,0.6,0.1,1.2,0.2,1.7h-1.1l-0.4-1.5h-0.1c-0.3,0.5-0.7,0.9-1.2,1.2
		c-0.5,0.3-1.2,0.5-1.9,0.5c-1.4,0-2.4-0.4-3.1-1.3c-0.7-0.9-1-2.3-1-4.1c0-1.8,0.4-3.2,1.3-4.1c0.8-0.9,2-1.4,3.5-1.4
		c0.5,0,0.9,0,1.2,0.1c0.3,0.1,0.6,0.1,1,0.3V242h1.7V253.1z M261.5,255.5c0.7,0,1.3-0.2,1.7-0.6c0.4-0.4,0.7-0.9,0.9-1.7V248
		c-0.3-0.2-0.5-0.3-0.9-0.4c-0.3-0.1-0.8-0.1-1.3-0.1c-1,0-1.7,0.3-2.3,1c-0.5,0.6-0.8,1.7-0.8,3.1c0,0.6,0,1.1,0.1,1.6
		c0.1,0.5,0.2,0.9,0.5,1.3c0.2,0.4,0.5,0.6,0.8,0.8C260.6,255.4,261.1,255.5,261.5,255.5z"/>
	<path d="M274.7,246.2h1.2l0.3,1.3h0.1c0.3-0.5,0.7-0.9,1.3-1.1c0.5-0.3,1.1-0.4,1.8-0.4c1.4,0,2.4,0.4,3.1,1.2c0.7,0.8,1,2.2,1,4.1
		c0,0.9-0.1,1.7-0.3,2.4c-0.2,0.7-0.6,1.3-1,1.8c-0.4,0.5-0.9,0.9-1.5,1.1c-0.6,0.3-1.3,0.4-2,0.4c-0.5,0-0.9,0-1.2-0.1
		c-0.3-0.1-0.6-0.2-1-0.3v4.4h-1.7V246.2z M278.9,247.4c-0.7,0-1.3,0.2-1.7,0.6c-0.4,0.4-0.7,0.9-0.9,1.7v5.2
		c0.3,0.2,0.5,0.3,0.9,0.5c0.3,0.1,0.8,0.2,1.3,0.2c1,0,1.7-0.4,2.3-1.1s0.9-1.8,0.9-3.2c0-0.6,0-1.1-0.1-1.6
		c-0.1-0.5-0.3-0.9-0.5-1.2c-0.2-0.3-0.5-0.6-0.8-0.8C279.8,247.5,279.4,247.4,278.9,247.4z"/>
	<path d="M291,247.8c-0.4-0.1-0.8-0.2-1.2-0.2c-0.6,0-1.1,0.2-1.4,0.5c-0.4,0.3-0.6,0.7-0.7,1.3v7.4H286v-10.5h1.2l0.3,1.3h0.1
		c0.3-0.5,0.6-0.8,1-1.1c0.4-0.3,0.8-0.4,1.4-0.4c0.4,0,0.9,0.1,1.4,0.2L291,247.8z"/>
	<path d="M292.6,251.5c0-1.8,0.4-3.1,1.2-4.1c0.8-0.9,1.9-1.4,3.4-1.4c0.8,0,1.5,0.1,2.1,0.4c0.6,0.3,1.1,0.6,1.4,1.1
		c0.4,0.5,0.7,1.1,0.8,1.7c0.2,0.7,0.3,1.4,0.3,2.3c0,1.8-0.4,3.1-1.2,4.1c-0.8,0.9-1.9,1.4-3.4,1.4c-0.8,0-1.5-0.1-2.1-0.4
		c-0.6-0.3-1.1-0.6-1.4-1.1c-0.4-0.5-0.7-1.1-0.8-1.7C292.7,253,292.6,252.3,292.6,251.5z M294.4,251.5c0,0.5,0.1,1,0.2,1.5
		c0.1,0.5,0.3,0.9,0.5,1.3c0.2,0.4,0.5,0.7,0.9,0.9c0.4,0.2,0.8,0.3,1.3,0.3c1.9,0,2.9-1.3,2.9-4c0-0.5-0.1-1.1-0.2-1.6
		c-0.1-0.5-0.3-0.9-0.5-1.3c-0.2-0.4-0.5-0.7-0.9-0.9c-0.4-0.2-0.8-0.3-1.3-0.3C295.3,247.4,294.4,248.7,294.4,251.5z"/>
	<path d="M303.1,246.2h1.6v-2.1l1.7-0.5v2.6h2.9v1.5h-2.9v5.8c0,0.7,0.1,1.2,0.3,1.5c0.2,0.3,0.5,0.5,0.9,0.5c0.4,0,0.7,0,0.9-0.1
		c0.3-0.1,0.5-0.2,0.8-0.3l0.4,1.3c-0.4,0.2-0.8,0.3-1.2,0.4c-0.4,0.1-0.9,0.2-1.5,0.2c-0.9,0-1.5-0.2-1.8-0.7
		c-0.4-0.5-0.5-1.3-0.5-2.4v-6.1h-1.6V246.2z"/>
	<path d="M319.1,255.9c-0.4,0.3-1,0.6-1.6,0.8c-0.6,0.2-1.3,0.3-2,0.3c-0.8,0-1.5-0.1-2.1-0.4c-0.6-0.3-1.1-0.6-1.5-1.1
		c-0.4-0.5-0.7-1.1-0.8-1.7c-0.2-0.7-0.3-1.4-0.3-2.3c0-1.8,0.4-3.2,1.2-4.1c0.8-0.9,1.9-1.4,3.4-1.4c0.5,0,1,0.1,1.4,0.2
		c0.5,0.1,0.9,0.3,1.3,0.6c0.4,0.3,0.7,0.7,0.9,1.3c0.2,0.5,0.4,1.3,0.4,2.1c0,0.5,0,1-0.1,1.5h-6.8c0,0.6,0.1,1.2,0.2,1.6
		c0.1,0.5,0.3,0.9,0.6,1.2c0.3,0.3,0.6,0.6,1,0.8c0.4,0.2,1,0.3,1.6,0.3c0.5,0,1-0.1,1.4-0.3c0.5-0.2,0.8-0.4,1.1-0.6L319.1,255.9z
		 M315.4,247.4c-0.8,0-1.5,0.2-2,0.7c-0.5,0.4-0.8,1.2-0.9,2.2h5.2c0-1.1-0.2-1.8-0.6-2.2C316.8,247.6,316.2,247.4,315.4,247.4z"/>
	<path d="M329,256c-0.4,0.3-0.9,0.5-1.5,0.7c-0.6,0.2-1.2,0.2-1.8,0.2c-0.8,0-1.5-0.1-2.1-0.4c-0.6-0.3-1-0.6-1.4-1.1
		c-0.4-0.5-0.6-1.1-0.8-1.7c-0.2-0.7-0.2-1.4-0.2-2.3c0-1.8,0.4-3.1,1.2-4.1c0.8-0.9,1.9-1.4,3.4-1.4c0.7,0,1.2,0.1,1.7,0.2
		c0.5,0.1,0.9,0.3,1.3,0.5l-0.5,1.5c-0.3-0.2-0.7-0.3-1.1-0.4c-0.4-0.1-0.8-0.2-1.3-0.2c-2,0-3,1.3-3,4c0,0.5,0.1,1,0.2,1.5
		c0.1,0.5,0.3,0.9,0.5,1.3c0.2,0.4,0.6,0.7,1,0.9c0.4,0.2,0.9,0.3,1.5,0.3c0.5,0,1-0.1,1.4-0.2c0.4-0.2,0.7-0.3,1-0.5L329,256z"/>
	<path d="M329.9,246.2h1.6v-2.1l1.7-0.5v2.6h2.9v1.5h-2.9v5.8c0,0.7,0.1,1.2,0.3,1.5c0.2,0.3,0.5,0.5,0.9,0.5c0.4,0,0.7,0,0.9-0.1
		c0.3-0.1,0.5-0.2,0.8-0.3l0.4,1.3c-0.4,0.2-0.8,0.3-1.2,0.4c-0.4,0.1-0.9,0.2-1.5,0.2c-0.9,0-1.5-0.2-1.8-0.7
		c-0.4-0.5-0.5-1.3-0.5-2.4v-6.1h-1.6V246.2z"/>
	<path d="M338.5,243c0-0.3,0.1-0.6,0.3-0.8c0.2-0.2,0.5-0.3,0.8-0.3s0.6,0.1,0.9,0.3c0.2,0.2,0.4,0.5,0.4,0.8c0,0.3-0.1,0.6-0.4,0.8
		c-0.2,0.2-0.5,0.3-0.9,0.3s-0.6-0.1-0.8-0.3C338.6,243.6,338.5,243.3,338.5,243z M338.8,246.2h1.7v10.5h-1.7V246.2z"/>
	<path d="M343.5,251.5c0-1.8,0.4-3.1,1.2-4.1c0.8-0.9,1.9-1.4,3.4-1.4c0.8,0,1.5,0.1,2.1,0.4c0.6,0.3,1.1,0.6,1.4,1.1
		c0.4,0.5,0.7,1.1,0.8,1.7c0.2,0.7,0.3,1.4,0.3,2.3c0,1.8-0.4,3.1-1.2,4.1c-0.8,0.9-1.9,1.4-3.4,1.4c-0.8,0-1.5-0.1-2.1-0.4
		c-0.6-0.3-1.1-0.6-1.4-1.1c-0.4-0.5-0.7-1.1-0.8-1.7C343.6,253,343.5,252.3,343.5,251.5z M345.3,251.5c0,0.5,0.1,1,0.2,1.5
		c0.1,0.5,0.3,0.9,0.5,1.3c0.2,0.4,0.5,0.7,0.9,0.9c0.4,0.2,0.8,0.3,1.3,0.3c1.9,0,2.9-1.3,2.9-4c0-0.5-0.1-1.1-0.2-1.6
		c-0.1-0.5-0.3-0.9-0.5-1.3c-0.2-0.4-0.5-0.7-0.9-0.9c-0.4-0.2-0.8-0.3-1.3-0.3C346.2,247.4,345.3,248.7,345.3,251.5z"/>
	<path d="M362.1,256.7v-6c0-1.1-0.2-1.9-0.5-2.5c-0.3-0.6-0.9-0.8-1.7-0.8c-0.7,0-1.4,0.2-1.8,0.6c-0.5,0.4-0.8,0.9-1,1.5v7.2h-1.7
		v-10.5h1.2l0.3,1.3h0.1c0.3-0.4,0.8-0.8,1.4-1.1c0.6-0.3,1.2-0.4,2-0.4c0.6,0,1.1,0.1,1.5,0.2c0.4,0.1,0.8,0.4,1.1,0.7
		c0.3,0.3,0.5,0.8,0.7,1.4c0.1,0.6,0.2,1.3,0.2,2.2v6.4H362.1z"/>
	<path d="M377.1,253.9c0-0.4-0.1-0.8-0.4-1c-0.3-0.2-0.6-0.4-0.9-0.6c-0.4-0.2-0.8-0.3-1.2-0.5c-0.4-0.1-0.8-0.3-1.2-0.6
		c-0.4-0.2-0.7-0.5-0.9-0.9c-0.3-0.4-0.4-0.9-0.4-1.5c0-1,0.3-1.8,0.9-2.2c0.6-0.5,1.4-0.7,2.4-0.7c0.8,0,1.4,0.1,1.9,0.2
		c0.5,0.1,1,0.3,1.3,0.5l-0.4,1.4c-0.3-0.2-0.7-0.3-1.2-0.4c-0.5-0.1-0.9-0.2-1.5-0.2c-0.6,0-1.1,0.1-1.4,0.3
		c-0.3,0.2-0.4,0.6-0.4,1.1c0,0.4,0.1,0.6,0.4,0.9c0.3,0.2,0.6,0.4,0.9,0.5c0.4,0.2,0.8,0.3,1.2,0.5c0.4,0.2,0.8,0.4,1.2,0.6
		c0.4,0.3,0.7,0.6,0.9,1c0.3,0.4,0.4,0.9,0.4,1.5c0,0.4-0.1,0.9-0.2,1.3s-0.4,0.7-0.7,1c-0.3,0.3-0.7,0.5-1.1,0.7
		c-0.5,0.2-1,0.2-1.6,0.2c-0.8,0-1.5-0.1-2-0.2c-0.6-0.2-1-0.3-1.4-0.5l0.5-1.4c0.3,0.2,0.7,0.4,1.3,0.5c0.5,0.2,1,0.2,1.6,0.2
		c0.6,0,1.1-0.1,1.5-0.4C377,254.9,377.1,254.5,377.1,253.9z"/>
	<path d="M380.8,251.5c0-1.8,0.4-3.1,1.2-4.1c0.8-0.9,1.9-1.4,3.4-1.4c0.8,0,1.5,0.1,2.1,0.4c0.6,0.3,1.1,0.6,1.4,1.1
		c0.4,0.5,0.7,1.1,0.8,1.7c0.2,0.7,0.3,1.4,0.3,2.3c0,1.8-0.4,3.1-1.2,4.1c-0.8,0.9-1.9,1.4-3.4,1.4c-0.8,0-1.5-0.1-2.1-0.4
		c-0.6-0.3-1.1-0.6-1.4-1.1c-0.4-0.5-0.7-1.1-0.8-1.7C380.9,253,380.8,252.3,380.8,251.5z M382.5,251.5c0,0.5,0.1,1,0.2,1.5
		c0.1,0.5,0.3,0.9,0.5,1.3c0.2,0.4,0.5,0.7,0.9,0.9c0.4,0.2,0.8,0.3,1.3,0.3c1.9,0,2.9-1.3,2.9-4c0-0.5-0.1-1.1-0.2-1.6
		c-0.1-0.5-0.3-0.9-0.5-1.3c-0.2-0.4-0.5-0.7-0.9-0.9c-0.4-0.2-0.8-0.3-1.3-0.3C383.5,247.4,382.5,248.7,382.5,251.5z"/>
	<path d="M394.5,254.1c0,0.5,0.1,0.8,0.3,1.1c0.2,0.2,0.4,0.3,0.7,0.3c0.2,0,0.4,0,0.6,0c0.2,0,0.4-0.1,0.7-0.2l0.2,1.3
		c-0.2,0.1-0.5,0.2-0.9,0.3c-0.4,0.1-0.7,0.1-1,0.1c-0.6,0-1.2-0.2-1.6-0.5c-0.4-0.4-0.6-1-0.6-1.8V242h1.7V254.1z"/>
	<path d="M400.3,246.2v6c0,0.5,0,1,0.1,1.4c0.1,0.4,0.2,0.8,0.3,1c0.2,0.3,0.4,0.5,0.6,0.6c0.3,0.1,0.6,0.2,1,0.2
		c0.4,0,0.7-0.1,1-0.2c0.3-0.1,0.6-0.3,0.8-0.5c0.2-0.2,0.4-0.5,0.6-0.7c0.2-0.3,0.3-0.6,0.4-0.9v-7h1.7v7.5c0,0.5,0,1,0.1,1.6
		c0,0.5,0.1,1,0.2,1.4H406l-0.4-1.7h-0.1c-0.3,0.5-0.8,1-1.3,1.4c-0.5,0.4-1.2,0.5-2.1,0.5c-0.6,0-1.1-0.1-1.5-0.2
		c-0.4-0.1-0.8-0.4-1.1-0.7c-0.3-0.3-0.5-0.8-0.7-1.4c-0.1-0.6-0.2-1.3-0.2-2.2v-6.4H400.3z"/>
	<path d="M408.8,246.2h1.6v-2.1l1.7-0.5v2.6h2.9v1.5h-2.9v5.8c0,0.7,0.1,1.2,0.3,1.5c0.2,0.3,0.5,0.5,0.9,0.5c0.4,0,0.7,0,0.9-0.1
		c0.3-0.1,0.5-0.2,0.8-0.3l0.4,1.3c-0.4,0.2-0.8,0.3-1.2,0.4c-0.4,0.1-0.9,0.2-1.5,0.2c-0.9,0-1.5-0.2-1.8-0.7
		c-0.4-0.5-0.5-1.3-0.5-2.4v-6.1h-1.6V246.2z"/>
	<path d="M417.3,243c0-0.3,0.1-0.6,0.3-0.8c0.2-0.2,0.5-0.3,0.8-0.3c0.3,0,0.6,0.1,0.9,0.3c0.2,0.2,0.4,0.5,0.4,0.8
		c0,0.3-0.1,0.6-0.4,0.8c-0.2,0.2-0.5,0.3-0.9,0.3c-0.3,0-0.6-0.1-0.8-0.3C417.4,243.6,417.3,243.3,417.3,243z M417.6,246.2h1.7
		v10.5h-1.7V246.2z"/>
	<path d="M422.3,251.5c0-1.8,0.4-3.1,1.2-4.1c0.8-0.9,1.9-1.4,3.4-1.4c0.8,0,1.5,0.1,2.1,0.4c0.6,0.3,1.1,0.6,1.4,1.1
		c0.4,0.5,0.7,1.1,0.8,1.7c0.2,0.7,0.3,1.4,0.3,2.3c0,1.8-0.4,3.1-1.2,4.1c-0.8,0.9-1.9,1.4-3.4,1.4c-0.8,0-1.5-0.1-2.1-0.4
		c-0.6-0.3-1.1-0.6-1.4-1.1c-0.4-0.5-0.7-1.1-0.8-1.7C422.4,253,422.3,252.3,422.3,251.5z M424.1,251.5c0,0.5,0.1,1,0.2,1.5
		c0.1,0.5,0.3,0.9,0.5,1.3c0.2,0.4,0.5,0.7,0.9,0.9c0.4,0.2,0.8,0.3,1.3,0.3c1.9,0,2.9-1.3,2.9-4c0-0.5-0.1-1.1-0.2-1.6
		c-0.1-0.5-0.3-0.9-0.5-1.3c-0.2-0.4-0.5-0.7-0.9-0.9c-0.4-0.2-0.8-0.3-1.3-0.3C425,247.4,424.1,248.7,424.1,251.5z"/>
	<path d="M441,256.7v-6c0-1.1-0.2-1.9-0.5-2.5c-0.3-0.6-0.9-0.8-1.7-0.8c-0.7,0-1.4,0.2-1.8,0.6c-0.5,0.4-0.8,0.9-1,1.5v7.2h-1.7
		v-10.5h1.2l0.3,1.3h0.1c0.3-0.4,0.8-0.8,1.4-1.1c0.6-0.3,1.2-0.4,2-0.4c0.6,0,1.1,0.1,1.5,0.2c0.4,0.1,0.8,0.4,1.1,0.7
		c0.3,0.3,0.5,0.8,0.7,1.4c0.1,0.6,0.2,1.3,0.2,2.2v6.4H441z"/>
</g>
</svg>
