<?xml version="1.0"?>
<svg width="285" height="57" xmlns="http://www.w3.org/2000/svg" xmlns:svg="http://www.w3.org/2000/svg">
 <g>
  <title>Layer 1</title>
  <g id="svg_2">
   <path id="svg_3" d="m31.899994,1.700012c5.800003,-1.399994 11.900002,-1.700012 17.700005,-0.600006c6.599998,1.100006 12.999992,3.600006 18.799995,7.399994c6.900009,4.700012 12.400009,11 16.300003,18.5c0.300003,0.600006 0.600006,1.100006 0.600006,1.700012c0,0.600006 -0.300003,0.799988 -0.600006,1.399994c-3.899994,7.700012 -9.699997,14.300018 -16.800003,19c-3,-3 -6.300003,-6.299988 -9.699997,-9.699982c1.400002,-1.700012 2.199997,-3.900024 2.800003,-5.800018c0.599991,-2.799988 0.800003,-6.100006 0.300003,-8.799988c-0.600006,-3.300018 -2.500008,-6.600006 -4.700005,-9.100006c-2.800003,-2.799988 -6.099998,-5 -9.700005,-5.799988c-2.799995,-0.600006 -5.5,-0.600006 -8.299995,0c-3.900002,0.799988 -7.400002,2.799988 -10.200005,6.099976c-1.699997,1.700012 -2.799995,3.600006 -3.599998,5.800018c-1.699997,4.399994 -1.699997,9.699982 0,14.100006c1.700005,3.899994 4.099998,7.399994 7.700005,9.399994c3.599998,2.199982 7.699997,3 11.899994,2.799988c3.300003,-0.299988 6.300003,-1.399994 9.400002,-3.299988c2.800003,2.799988 5.200005,5.199982 8.000008,8c-4.700005,1.899994 -9.700005,3.299988 -14.600006,3.899994c-6.300003,0.600006 -12.400002,0 -18.199997,-1.899994c-3.900002,-1.399994 -7.700005,-3 -11.300003,-5.200012c-7.400002,-5 -13.5,-11.899994 -17.400001,-19.899994c-0.299995,-0.299988 -0.299995,-0.600006 -0.299995,-1.100006s0.299995,-0.600006 0.599998,-0.799988c3,-6.600006 8,-12.399994 13.799995,-17.100006c4.900002,-4.600006 10.900002,-7.600006 17.5,-9z" fill="#F1832B"/>
   <path id="svg_4" d="m41.599998,16.299988c2.199997,0 4.400002,0.600006 6.299995,1.399994c1.900002,1.100006 3.600006,2.800018 5,4.700012c0.800003,1.699982 1.700005,3.299988 1.700005,5.199982c0.299995,2.200012 -0.300003,4.700012 -1.400002,6.600006c-1.400002,2.800018 -3.900002,5 -6.300003,5.800018c-2.199997,0.799988 -4.399994,1.099976 -6.899994,0.599976c-1.900002,-0.599976 -3.900002,-1.399994 -5.5,-2.799988c-1.700005,-1.399994 -2.800003,-2.799988 -3.600006,-5c-0.799995,-2.5 -1.099998,-5 -0.599998,-7.399994c0.599998,-2.200012 1.700005,-4.100006 3.300003,-5.800018c2.199997,-2.199982 5,-3.299988 8,-3.299988z" fill="#F1832B"/>
  </g>
  <g id="svg_5">
   <path id="svg_6" d="m105.800011,42c0,0.299988 0,0.600006 -0.099991,0.799988s-0.300003,0.600006 -0.400009,0.800018c-0.099991,0.299988 -0.399994,0.600006 -0.700012,0.699982s-0.699982,0.400024 -1,0.400024l0,0.099976c0.399994,0 0.700012,0.100006 1,0.300018c0.300018,0.100006 0.600021,0.299988 0.800018,0.600006c0.300003,0.299988 0.399994,0.599976 0.599976,0.799988c0.100006,0.399994 0.300018,0.700012 0.300018,1.200012c0,0.699982 -0.099991,1.099976 -0.399994,1.699982c-0.300018,0.399994 -0.600006,0.800018 -1,1.100006c-0.400024,0.299988 -1,0.600006 -1.5,0.700012s-1.100006,0.299988 -1.699997,0.299988c-0.100021,0 -0.400009,0 -0.700027,0s-0.599976,0 -0.799973,0c-0.300003,0 -0.600021,0 -0.800003,-0.100006c-0.300018,0 -0.600006,-0.100006 -0.800018,-0.100006l0,-12c0.399994,-0.099976 1,-0.099976 1.5,-0.099976s1.200012,-0.100006 1.800018,-0.100006c0.399994,0 1,0 1.399994,0.100006c0.400009,0.099976 0.799988,0.299988 1.199982,0.399994c0.400024,0.299988 0.700027,0.600006 1,0.799988c0.199997,0.5 0.300018,0.899994 0.300018,1.600006zm-5,2.399994c0.100006,0 0.400009,0 0.699982,0s0.600006,0 0.700027,0c0.299973,-0.100006 0.599991,-0.100006 0.799973,-0.300018s0.400024,-0.299988 0.700027,-0.399994c0.099991,-0.100006 0.299973,-0.399994 0.399979,-0.699982c0.100021,-0.300018 0.100021,-0.600006 0.100021,-0.800018c0,-0.399994 -0.100021,-0.699982 -0.300003,-1c-0.100006,-0.299988 -0.300018,-0.399994 -0.600006,-0.600006c-0.300018,-0.099976 -0.599991,-0.299988 -0.800018,-0.299988s-0.699982,-0.100006 -1,-0.100006c-0.399994,0 -0.699982,0 -1.099976,0c-0.300018,0 -0.600006,0 -0.699997,0.100006l0,4.100006l1,0l0,0l0.099991,0zm1,5.700012c0.400009,0 0.699982,0 1.100006,-0.100006c0.399994,-0.099976 0.699982,-0.299988 1,-0.399994s0.399994,-0.399994 0.699982,-0.699982c0.100021,-0.300018 0.300018,-0.600006 0.300018,-1s-0.100006,-0.800018 -0.300018,-1.100006c-0.100006,-0.300018 -0.399979,-0.600006 -0.699982,-0.700012c-0.300018,-0.100006 -0.699997,-0.299988 -1,-0.299988c-0.400024,0 -0.800018,-0.100006 -1.100006,-0.100006l-1.5,0l0,4.399994c0.100006,0 0.100006,0 0.400009,0c0.099991,0 0.299973,0 0.599991,0c0.099976,0 0.399979,0 0.5,0s-0.100021,0 0,0z" fill="#FFFFFF"/>
   <path id="svg_7" d="m112.599998,43.899994c-0.400024,-0.100006 -0.700012,-0.100006 -1,-0.100006c-0.600006,0 -0.800018,0.100006 -1.200012,0.399994c-0.299988,0.300018 -0.399994,0.600006 -0.600006,1l0,6.100006l-1.399994,0l0,-8.700012l1,0l0.299988,1.100006l0.100006,0c0.300018,-0.399994 0.600006,-0.699982 0.800018,-1c0.299988,-0.299988 0.699982,-0.299988 1.099976,-0.299988c0.300018,0 0.700012,0 1.100006,0.100006l-0.199982,1.399994z" fill="#FFFFFF"/>
   <path id="svg_8" d="m114.200005,43.200012c0.399994,-0.299988 1,-0.399994 1.499985,-0.600006c0.600021,-0.100006 1.199997,-0.100006 1.800003,-0.100006s1.100006,0.100006 1.5,0.300018c0.399994,0.100006 0.699997,0.399994 0.800018,0.699982c0.099976,0.300018 0.299988,0.600006 0.399994,0.800018c0,0.299988 0.100006,0.699982 0.100006,1c0,0.699982 0,1.399994 0,2.100006s0,1.199982 0,1.899994c0,0.399994 0,0.799988 0,1.199982c0,0.400024 0.099976,0.700012 0.099976,1.100006l-1,0l-0.399994,-1.199982l-0.100006,0c-0.099976,0.099976 -0.299988,0.299988 -0.399994,0.399994c-0.100006,0.100006 -0.299988,0.299988 -0.600006,0.399994c-0.299988,0.100006 -0.399994,0.299988 -0.799988,0.299988c-0.299988,0.100006 -0.600006,0.100006 -1,0.100006c-0.400009,0 -0.700012,0 -1,-0.100006c-0.299988,-0.099976 -0.600006,-0.299988 -0.799988,-0.599976c-0.300018,-0.300018 -0.400024,-0.400024 -0.600021,-0.800018c-0.099991,-0.299988 -0.099991,-0.699982 -0.099991,-1c0,-0.600006 0.099991,-1 0.299988,-1.199982c0.300018,-0.300018 0.600006,-0.600006 0.800003,-0.800018c0.400009,-0.100006 0.800003,-0.399994 1.400009,-0.399994c0.599991,-0.100006 1.100006,-0.100006 1.799988,-0.100006c0.100006,0 0.300018,0 0.400024,0s0.299988,0 0.399979,0c0,-0.399994 0,-0.699982 0,-1c0,-0.699982 -0.099991,-1.100006 -0.399979,-1.399994s-0.700012,-0.399994 -1.400024,-0.399994c-0.099976,0 -0.399994,0 -0.699982,0s-0.399994,0.100006 -0.700012,0.100006s-0.399994,0.099976 -0.699982,0.099976c-0.300018,0.100006 -0.400024,0.100006 -0.600006,0.300018l0,-1.100006zm2.499985,7c0.300003,0 0.600021,0 0.800003,-0.100006c0.300018,-0.100006 0.399994,-0.100006 0.700012,-0.299988c0.100006,-0.100006 0.299988,-0.300018 0.399994,-0.399994c0.099991,-0.100006 0.299988,-0.300018 0.299988,-0.400024l0,-1.399994c-0.099976,0 -0.299988,0 -0.599976,0c-0.100006,0 -0.300018,0 -0.600021,0c-0.399979,0 -0.699997,0 -1.099991,0c-0.299988,0 -0.700012,0.100006 -1,0.300018s-0.399994,0.299988 -0.700012,0.399994c-0.099976,0.100006 -0.299988,0.399994 -0.299988,0.699982c0,0.400024 0.099991,0.700012 0.399994,1c0.899994,0.100006 1.100006,0.200012 1.699997,0.200012z" fill="#FFFFFF"/>
   <path id="svg_9" d="m128.600006,51.200012l0,-5c0,-1 -0.100006,-1.5 -0.400024,-2.100006c-0.299995,-0.399994 -0.699989,-0.699982 -1.400002,-0.699982c-0.600006,0 -1.100006,0.099976 -1.5,0.599976c-0.399994,0.300018 -0.699982,0.700012 -0.799988,1.200012l0,5.899994l-1.399994,0l0,-8.699982l1,0l0.299988,1.099976l0.100006,0c0.299988,-0.399994 0.699982,-0.699982 1.100006,-1s1,-0.399994 1.699982,-0.399994c0.399994,0 0.800026,0 1.20002,0.100006s0.699982,0.299988 0.799988,0.600006c0.300018,0.299988 0.399994,0.699982 0.599991,1.100006s0.100021,1.099976 0.100021,1.799988l0,5.200012l-1.399994,0l0,0.299988z" fill="#FFFFFF"/>
   <path id="svg_10" d="m139.100006,48.299988c0,0.600006 0,1.100006 0,1.700012c0,0.399994 0,1 0.099976,1.399994l-1,0l-0.400009,-1.200012l-0.099991,0c-0.299988,0.399994 -0.599976,0.700012 -1,1c-0.399963,0.300018 -1,0.399994 -1.499969,0.399994c-1.100006,0 -2.100006,-0.399994 -2.600006,-1.099976c-0.600006,-0.700012 -0.799988,-1.900024 -0.799988,-3.5c0,-1.5 0.399994,-2.600006 1.09996,-3.300018s1.700027,-1.100006 2.90004,-1.100006c0.399994,0 0.799988,0 1,0.100006c0.299988,0 0.599976,0.100006 0.799988,0.300018l0,-3.600006l1.399994,0l0,9l0.100006,0l0,-0.100006zm-3.5,1.900024c0.599976,0 1.099976,-0.100006 1.399994,-0.399994c0.399994,-0.300018 0.600006,-0.800018 0.699982,-1.399994l0,-4.300018c-0.299988,-0.100006 -0.399994,-0.299988 -0.699982,-0.399994c-0.300018,-0.100006 -0.600006,-0.100006 -1.100021,-0.100006c-0.799973,0 -1.399979,0.300018 -1.899979,0.800018c-0.399994,0.599976 -0.700012,1.399994 -0.700012,2.5c0,0.399994 0,1 0.100006,1.399994s0.100006,0.699982 0.399979,1.100006c0.100006,0.299988 0.400009,0.599976 0.700027,0.699982c0.399979,0.100006 0.700012,0.100006 1.100006,0.100006z" fill="#FFFFFF"/>
   <path id="svg_11" d="m146.399994,42.600006l1,0l0.299988,1.100006l0.100037,0c0.299988,-0.399994 0.599976,-0.700012 1,-1c0.399994,-0.299988 1,-0.299988 1.5,-0.299988c1.099976,0 2.099976,0.299988 2.59996,1s0.800003,1.799988 0.800003,3.299988c0,0.700012 -0.099976,1.399994 -0.299988,1.899994s-0.399994,1.100006 -0.799988,1.5c-0.399994,0.399994 -0.799988,0.700012 -1.200012,1c-0.599976,0.300018 -1.099976,0.300018 -1.700012,0.300018c-0.399963,0 -0.800003,0 -1,-0.100006c-0.299988,0 -0.599976,-0.100006 -0.800003,-0.300018l0,3.600006l-1.399979,0l0,-12l-0.100006,0zm3.600006,1c-0.600006,0 -1.100021,0.100006 -1.399994,0.399994c-0.299988,0.300018 -0.600006,0.800018 -0.700027,1.400024l0,4.299988c0.300034,0.100006 0.40004,0.299988 0.700027,0.399994c0.299973,0.100006 0.600006,0.100006 1.099976,0.100006c0.800018,0 1.400024,-0.299988 1.900024,-0.799988c0.399994,-0.600006 0.700012,-1.5 0.700012,-2.600006c0,-0.399994 0,-1 -0.100006,-1.200012c-0.100006,-0.399994 -0.300034,-0.699982 -0.399994,-1c-0.100037,-0.299988 -0.400024,-0.600006 -0.700012,-0.699982c-0.400024,-0.300018 -0.700012,-0.300018 -1.100006,-0.300018z" fill="#FFFFFF"/>
   <path id="svg_12" d="m159.899979,43.899994c-0.299973,-0.100006 -0.699966,-0.100006 -1,-0.100006c-0.59996,0 -0.799973,0.100006 -1.199997,0.399994c-0.299988,0.300018 -0.399963,0.600006 -0.599976,1l0,6.100006l-1.400024,0l0,-8.700012l1,0l0.300018,1.100006l0.100006,0c0.299988,-0.399994 0.599976,-0.699982 0.799973,-1c0.300034,-0.299988 0.700027,-0.299988 1.100021,-0.299988c0.300018,0 0.699982,0 1.100006,0.100006l-0.200027,1.399994z" fill="#FFFFFF"/>
   <path id="svg_13" d="m161.300018,46.899994c0,-1.5 0.299988,-2.600006 1,-3.300018c0.699982,-0.799988 1.699982,-1.099976 2.799988,-1.099976c0.700012,0 1.200012,0.099976 1.700012,0.299988c0.399994,0.299988 0.799988,0.600006 1.199982,1c0.300018,0.399994 0.600006,0.799988 0.700012,1.399994c0.100006,0.600006 0.299988,1.200012 0.299988,1.899994c0,1.5 -0.299988,2.600006 -1,3.300018c-0.699982,0.799988 -1.699982,1.100006 -2.799988,1.100006c-0.700012,0 -1.200012,-0.100006 -1.700012,-0.300018c-0.399994,-0.299988 -0.799988,-0.600006 -1.199982,-1c-0.300018,-0.399994 -0.600006,-0.799988 -0.700012,-1.399994c-0.299988,-0.599976 -0.299988,-1.199982 -0.299988,-1.899994zm1.399963,0c0,0.399994 0,0.799988 0.100037,1.199982s0.299988,0.700012 0.399994,1.100006c0.100006,0.300018 0.399994,0.600006 0.699966,0.700012c0.300034,0.100006 0.700027,0.299988 1.100021,0.299988c1.5,0 2.300018,-1.100006 2.300018,-3.299988c0,-0.399994 0,-0.800018 -0.100006,-1.200012s-0.300034,-0.699982 -0.399994,-1.100006c-0.100037,-0.299988 -0.400024,-0.599976 -0.700012,-0.699982c-0.299988,-0.100006 -0.700012,-0.300018 -1.100006,-0.300018c-1.5,0.000031 -2.300018,1.100037 -2.300018,3.300018z" fill="#FFFFFF"/>
   <path id="svg_14" d="m169.800018,42.600006l1.399994,0l0,-1.600006l1.399994,-0.399994l0,2.100006l2.300018,0l0,1.099976l-2.300018,0l0,4.800018c0,0.600006 0.100006,1 0.300018,1.199982s0.399994,0.400024 0.799988,0.400024c0.299988,0 0.600006,0 0.799988,-0.100006c0.300018,0 0.400024,-0.100006 0.700012,-0.300018l0.299988,1.100006c-0.299988,0.100006 -0.699982,0.300018 -1,0.399994c-0.399994,0.100006 -0.799988,0.100006 -1.199982,0.100006c-0.700012,0 -1.200012,-0.100006 -1.5,-0.600006s-0.399994,-1.099976 -0.399994,-2.099976l0,-5.100006l-1.400024,0l0,-1.100006l-0.199982,0l0,0.100006z" fill="#FFFFFF"/>
   <path id="svg_15" d="m183.100006,50.5c-0.400024,0.299988 -0.800018,0.600006 -1.200027,0.700012c-0.599991,0.099976 -1.100006,0.299988 -1.699997,0.299988c-0.699982,0 -1.199982,-0.100006 -1.699982,-0.299988c-0.600021,-0.300018 -0.800018,-0.600006 -1.200012,-1c-0.299988,-0.400024 -0.600006,-0.800018 -0.699982,-1.400024c-0.100006,-0.599976 -0.300018,-1.199982 -0.300018,-1.899994c0,-1.5 0.300018,-2.600006 1,-3.5c0.700012,-0.799988 1.700012,-1.100006 2.899994,-1.100006c0.400024,0 0.800018,0 1.200012,0.100006c0.399979,0.100006 0.700012,0.300018 1.100006,0.600006c0.299973,0.299988 0.600006,0.600006 0.799988,1c0.100006,0.399994 0.300018,1 0.300018,1.799988c0,0.400024 0,0.800018 -0.100006,1.200012l-5.5,0c0,0.600006 0,1 0.100006,1.399994s0.299988,0.700012 0.599976,1c0.300018,0.300018 0.600006,0.399994 0.800018,0.700012c0.399979,0.100006 0.799988,0.299988 1.199982,0.299988s0.800018,-0.100006 1.199997,-0.299988c0.400009,-0.100006 0.700027,-0.300018 0.800003,-0.600006l0.400024,1zm-3,-6.899994c-0.700012,0 -1.200027,0.100006 -1.700012,0.600006s-0.700012,1 -0.700012,1.799988l4.300018,0c0,-0.799988 -0.100021,-1.5 -0.600006,-1.799988c-0.199982,-0.400024 -0.700012,-0.600006 -1.299988,-0.600006z" fill="#FFFFFF"/>
   <path id="svg_16" d="m191.200012,50.700012c-0.399994,0.299988 -0.700012,0.399994 -1.200012,0.600006c-0.399994,0.100006 -1,0.100006 -1.5,0.100006c-0.699982,0 -1.199982,-0.100006 -1.699982,-0.300018c-0.400024,-0.299988 -0.800018,-0.600006 -1.100037,-1s-0.599976,-0.799988 -0.699982,-1.399994c-0.100021,-0.600006 -0.100021,-1.200012 -0.100021,-1.899994c0,-1.5 0.300034,-2.600006 1,-3.300018c0.700027,-0.799988 1.500015,-1.099976 2.800003,-1.099976c0.600037,0 1,0 1.400024,0.099976s0.700012,0.300018 1.100006,0.400024l-0.399994,1.199982c-0.300018,-0.100006 -0.600006,-0.299988 -0.800018,-0.399994s-0.699982,-0.100006 -1.099976,-0.100006c-1.700012,0 -2.500031,1.100006 -2.500031,3.300018c0,0.399994 0,0.799988 0.100006,1.199982s0.300018,0.700012 0.399979,1.100006c0.100021,0.299988 0.40004,0.600006 0.800003,0.700012c0.300018,0.099976 0.700012,0.299988 1.200043,0.299988c0.399994,0 0.799957,0 1.099976,-0.100006s0.600006,-0.299988 0.800018,-0.399994l0.399994,1z" fill="#FFFFFF"/>
   <path id="svg_17" d="m192.100006,42.600006l1.399994,0l0,-1.600006l1.399979,-0.399994l0,2.100006l2.300034,0l0,1.099976l-2.300034,0l0,4.800018c0,0.600006 0.100021,1 0.300034,1.199982s0.399994,0.400024 0.799988,0.400024c0.299988,0 0.600006,0 0.799973,-0.100006c0.300034,0 0.40004,-0.100006 0.700027,-0.300018l0.299973,1.100006c-0.299973,0.100006 -0.699966,0.300018 -1,0.399994c-0.399979,0.100006 -0.799973,0.100006 -1.199966,0.100006c-0.700027,0 -1.200012,-0.100006 -1.5,-0.600006c-0.300034,-0.399994 -0.400024,-1.099976 -0.400024,-2.099976l0,-5.100006l-1.399994,0l0,-1.100006l-0.199982,0l0,0.100006z" fill="#FFFFFF"/>
   <path id="svg_18" d="m199.100006,39.899994c0,-0.300018 0.100006,-0.600006 0.299988,-0.700012s0.399979,-0.299988 0.700012,-0.299988s0.599976,0.100006 0.699966,0.299988s0.300034,0.399994 0.300034,0.700012s-0.100006,0.600006 -0.300034,0.699982c-0.099991,0.100006 -0.399979,0.300018 -0.699966,0.300018s-0.600006,-0.100006 -0.700012,-0.300018c-0.299988,-0.199982 -0.299988,-0.399963 -0.299988,-0.699982zm0.300018,2.700012l1.399994,0l0,8.700012l-1.399994,0l0,-8.700012z" fill="#FFFFFF"/>
   <path id="svg_19" d="m203.200012,46.899994c0,-1.5 0.299988,-2.600006 1,-3.300018c0.700012,-0.799988 1.700012,-1.099976 2.799988,-1.099976c0.699982,0 1.200012,0.099976 1.699982,0.299988c0.400024,0.299988 0.800018,0.600006 1.200043,1c0.299988,0.399994 0.599976,0.799988 0.699982,1.399994c0.099976,0.600006 0.300018,1.200012 0.300018,1.899994c0,1.5 -0.300018,2.600006 -1,3.300018c-0.700012,0.799988 -1.700012,1.100006 -2.800018,1.100006c-0.699982,0 -1.199982,-0.100006 -1.699982,-0.300018c-0.400024,-0.299988 -0.800018,-0.600006 -1.200012,-1c-0.299988,-0.399994 -0.600006,-0.799988 -0.700012,-1.399994c-0.299988,-0.599976 -0.299988,-1.199982 -0.299988,-1.899994zm1.399994,0c0,0.399994 0,0.799988 0.099976,1.199982s0.300018,0.700012 0.400024,1.100006c0.100006,0.300018 0.399994,0.600006 0.699966,0.700012s0.700027,0.299988 1.100006,0.299988c1.500015,0 2.300034,-1.100006 2.300034,-3.299988c0,-0.399994 0,-0.800018 -0.100006,-1.200012c-0.100006,-0.399994 -0.300034,-0.699982 -0.400024,-1.100006c-0.099976,-0.299988 -0.399994,-0.599976 -0.699982,-0.699982c-0.300018,-0.100006 -0.700012,-0.300018 -1.100021,-0.300018c-1.399979,0.000031 -2.299973,1.100037 -2.299973,3.300018z" fill="#FFFFFF"/>
   <path id="svg_20" d="m218.600006,51.200012l0,-5c0,-1 -0.100006,-1.5 -0.399994,-2.100006c-0.300034,-0.399994 -0.700012,-0.699982 -1.40004,-0.699982c-0.59996,0 -1.099991,0.099976 -1.499985,0.599976c-0.400009,0.300018 -0.699982,0.700012 -0.799988,1.200012l0,5.899994l-1.399994,0l0,-8.699982l1,0l0.299988,1.099976l0.100006,0c0.299973,-0.399994 0.700012,-0.699982 1.100006,-1s1,-0.399994 1.699982,-0.399994c0.399994,0 0.800018,0 1.200012,0.100006s0.700012,0.299988 0.799988,0.600006c0.300018,0.299988 0.399994,0.699982 0.599991,1.100006c0.100021,0.399994 0.100021,1.099976 0.100021,1.799988l0,5.200012l-1.399994,0l0,0.299988z" fill="#FFFFFF"/>
   <path id="svg_21" d="m231,48.899994c0,-0.399994 -0.100021,-0.600006 -0.300003,-0.800018c-0.300003,-0.099976 -0.400009,-0.399994 -0.800018,-0.599976c-0.299973,-0.100006 -0.699966,-0.300018 -1,-0.400024c-0.399979,-0.099976 -0.699966,-0.299988 -1,-0.399994s-0.599991,-0.399994 -0.799973,-0.699982s-0.300034,-0.700012 -0.300034,-1.200012c0,-0.799988 0.300034,-1.399994 0.700027,-1.799988s1.100006,-0.600006 1.899994,-0.600006c0.700012,0 1.100006,0 1.499985,0.100006c0.400009,0.099976 0.800018,0.299988 1.100021,0.399994l-0.300003,1.100006c-0.300003,-0.100006 -0.599991,-0.300018 -1,-0.300018c-0.400009,-0.100006 -0.800018,-0.100006 -1.199997,-0.100006c-0.600021,0 -0.800003,0.100006 -1.100006,0.300018s-0.399994,0.399994 -0.399994,1c0,0.299988 0.100006,0.600006 0.299988,0.699982c0.300018,0.100006 0.400009,0.300018 0.800018,0.400024c0.299988,0.099976 0.699966,0.299988 1,0.399994c0.399994,0.100006 0.699966,0.299988 1,0.600006c0.299988,0.299988 0.599991,0.399994 0.799973,0.799988c0.300034,0.399994 0.300034,0.700012 0.300034,1.200012c0,0.399994 0,0.699982 -0.100006,1.099976c-0.100006,0.300018 -0.300034,0.600006 -0.600006,0.800018c-0.299988,0.299988 -0.600021,0.399994 -1,0.600006c-0.399994,0.099976 -0.800003,0.099976 -1.399994,0.099976c-0.700012,0 -1.200027,0 -1.700012,-0.099976c-0.399994,-0.100006 -0.799988,-0.300018 -1.100006,-0.400024l0.400009,-1.199982c0.300003,0.100006 0.599991,0.299988 1.099976,0.399994c0.600021,0.100006 0.800034,0.100006 1.200027,0.100006c0.600006,0 1,-0.100006 1.200012,-0.300018c0.700012,-0.299988 0.799988,-0.699982 0.799988,-1.199982z" fill="#FFFFFF"/>
   <path id="svg_22" d="m234,46.899994c0,-1.5 0.299988,-2.600006 1,-3.300018c0.699997,-0.799988 1.699997,-1.099976 2.799973,-1.099976c0.700027,0 1.200027,0.099976 1.700027,0.299988c0.399979,0.299988 0.799988,0.600006 1.199997,1c0.300003,0.399994 0.599991,0.799988 0.699997,1.399994c0.100006,0.600006 0.300003,1.200012 0.300003,1.899994c0,1.5 -0.300003,2.600006 -1,3.300018c-0.699997,0.799988 -1.699997,1.100006 -2.800018,1.100006c-0.699966,0 -1.199982,-0.100006 -1.699966,-0.300018c-0.40004,-0.299988 -0.800018,-0.600006 -1.200012,-1c-0.300003,-0.399994 -0.600006,-0.799988 -0.700012,-1.399994c-0.299988,-0.599976 -0.299988,-1.199982 -0.299988,-1.899994zm1.400024,0c0,0.399994 0,0.799988 0.100006,1.199982c0.100006,0.400024 0.299988,0.700012 0.399994,1.100006c0.100006,0.300018 0.399994,0.600006 0.700012,0.700012c0.299988,0.100006 0.699982,0.299988 1.09996,0.299988c1.500015,0 2.300034,-1.100006 2.300034,-3.299988c0,-0.399994 0,-0.800018 -0.100006,-1.200012c-0.100006,-0.399994 -0.299988,-0.699982 -0.399994,-1.100006c-0.100006,-0.299988 -0.399994,-0.599976 -0.700012,-0.699982c-0.299988,-0.100006 -0.699982,-0.300018 -1.100021,-0.300018c-1.499985,0.000031 -2.299973,1.100037 -2.299973,3.300018z" fill="#FFFFFF"/>
   <path id="svg_23" d="m245.300018,49.100006c0,0.399994 0.100006,0.700012 0.300018,0.800018s0.299988,0.299988 0.599976,0.299988c0.100006,0 0.300018,0 0.600006,0c0.100006,0 0.399994,-0.100006 0.600006,-0.100006l0.100006,1.100006c-0.100006,0.100006 -0.399994,0.100006 -0.800034,0.299988c-0.299973,0 -0.59996,0.100006 -0.799973,0.100006c-0.600006,0 -1,-0.100006 -1.200027,-0.399994c-0.299973,-0.299988 -0.59996,-0.799988 -0.59996,-1.5l0,-10.399994l1.399994,0l-0.200012,9.799988l0,0z" fill="#FFFFFF"/>
   <path id="svg_24" d="m250,42.600006l0,5c0,0.399994 0,0.800018 0.100006,1.200012c0,0.299988 0.100006,0.699982 0.299988,0.799988c0.100006,0.300018 0.300003,0.399994 0.600006,0.600006s0.600006,0.100006 0.799973,0.100006s0.600021,0 0.800034,-0.100006s0.399994,-0.299988 0.699982,-0.399994c0.100006,-0.100006 0.400009,-0.399994 0.599991,-0.600006c0.100021,-0.100006 0.300034,-0.399994 0.400009,-0.700012l0,-5.799988l1.400009,0l0,6.200012c0,0.399994 0,0.799988 0,1.199982s0.099976,0.800018 0.099976,1.100006l-1,0l-0.399979,-1.399994l-0.100006,0c-0.299988,0.399994 -0.699982,0.799988 -1.099976,1.100006s-1,0.399994 -1.700012,0.399994c-0.399994,0 -0.800003,0 -1.200012,-0.100006c-0.400009,-0.100006 -0.699982,-0.299988 -0.799988,-0.600006c-0.299988,-0.299988 -0.399994,-0.699982 -0.600021,-1.100006s-0.100006,-1.099976 -0.100006,-1.799988l0,-5.200012l1.200027,0l0,0.100006z" fill="#FFFFFF"/>
   <path id="svg_25" d="m257.100006,42.600006l1.399994,0l0,-1.600006l1.399994,-0.399994l0,2.100006l2.300018,0l0,1.099976l-2.300018,0l0,4.800018c0,0.600006 0.100006,1 0.300018,1.199982s0.399994,0.400024 0.799988,0.400024c0.299988,0 0.600006,0 0.799988,-0.100006c0.300018,0 0.400024,-0.100006 0.700012,-0.300018l0.299988,1.100006c-0.299988,0.100006 -0.699982,0.300018 -1,0.399994c-0.399994,0.100006 -0.799988,0.100006 -1.199982,0.100006c-0.700012,0 -1.200012,-0.100006 -1.5,-0.600006s-0.399994,-1.099976 -0.399994,-2.099976l0,-5.100006l-1.400024,0l0,-1.100006l-0.199982,0l0,0.100006z" fill="#FFFFFF"/>
   <path id="svg_26" d="m264.100006,39.899994c0,-0.300018 0.100006,-0.600006 0.299988,-0.700012c0.100006,-0.100006 0.399994,-0.299988 0.700012,-0.299988s0.600006,0.100006 0.699982,0.299988s0.300018,0.399994 0.300018,0.700012s-0.100006,0.600006 -0.300018,0.699982c-0.099976,0.100006 -0.399994,0.300018 -0.699982,0.300018s-0.600006,-0.100006 -0.700012,-0.300018c-0.299988,-0.199982 -0.299988,-0.399963 -0.299988,-0.699982zm0.300018,2.700012l1.399994,0l0,8.700012l-1.399994,0l0,-8.700012z" fill="#FFFFFF"/>
   <path id="svg_27" d="m268.300018,46.899994c0,-1.5 0.300018,-2.600006 1,-3.300018c0.700012,-0.799988 1.700012,-1.099976 2.800018,-1.099976c0.699982,0 1.199982,0.099976 1.699982,0.299988c0.399994,0.299988 0.800018,0.600006 1.200012,1c0.299988,0.399994 0.600006,0.799988 0.699982,1.399994c0.100006,0.600006 0.300018,1.200012 0.300018,1.899994c0,1.5 -0.300018,2.600006 -1,3.300018c-0.700012,0.799988 -1.700012,1.100006 -2.800018,1.100006c-0.699982,0 -1.199982,-0.100006 -1.699982,-0.300018c-0.399994,-0.299988 -0.800018,-0.600006 -1.200012,-1c-0.299988,-0.399994 -0.600006,-0.799988 -0.699982,-1.399994c-0.300018,-0.599976 -0.300018,-1.199982 -0.300018,-1.899994zm1.299988,0c0,0.399994 0,0.799988 0.100006,1.199982c0.099976,0.400024 0.299988,0.700012 0.399994,1.100006c0.100006,0.300018 0.399994,0.600006 0.699982,0.700012c0.300018,0.100006 0.700012,0.299988 1.100006,0.299988c1.5,0 2.300018,-1.100006 2.300018,-3.299988c0,-0.399994 0,-0.800018 -0.100006,-1.200012c-0.100006,-0.399994 -0.300018,-0.699982 -0.399994,-1.100006c-0.100006,-0.299988 -0.400024,-0.599976 -0.700012,-0.699982s-0.700012,-0.300018 -1.100006,-0.300018c-1.399994,0.000031 -2.299988,1.100037 -2.299988,3.300018z" fill="#FFFFFF"/>
   <path id="svg_28" d="m283.600006,51.200012l0,-5c0,-1 -0.100006,-1.5 -0.399994,-2.100006c-0.300018,-0.399994 -0.700012,-0.699982 -1.400024,-0.699982c-0.599976,0 -1.099976,0.099976 -1.5,0.599976c-0.399994,0.300018 -0.699982,0.700012 -0.799988,1.200012l0,5.899994l-1.399994,0l0,-8.699982l1,0l0.299988,1.099976l0.100006,0c0.299988,-0.399994 0.700012,-0.699982 1.100006,-1s1,-0.399994 1.699982,-0.399994c0.400024,0 0.800018,0 1.200012,0.100006c0.399994,0.100006 0.700012,0.299988 0.799988,0.600006c0.300018,0.299988 0.400024,0.699982 0.600006,1.100006s0.100006,1.099976 0.100006,1.799988l0,5.200012l-1.399994,0l0,0.299988z" fill="#FFFFFF"/>
  </g>
  <g id="svg_29">
   <path id="svg_30" d="m116.099998,9.600006c0,0.700012 -0.100006,1.399994 -0.300018,2.100006c-0.199982,0.700012 -0.600006,1.399994 -1,2s-1,1.200012 -1.699982,1.600006c-0.700012,0.5 -1.5,0.799988 -2.5,1.100006l0,0.199982c0.799988,0.100006 1.599976,0.399994 2.399994,0.700012c0.799988,0.299988 1.399994,0.799988 2,1.399994c0.600006,0.600006 1.100006,1.299988 1.399994,2.100006c0.399994,0.799988 0.5,1.799988 0.5,3c0,1.5 -0.299988,2.799988 -0.899994,3.899994c-0.600006,1.100006 -1.399994,2 -2.5,2.700012c-1,0.699982 -2.200012,1.199982 -3.5,1.5c-1.300018,0.299988 -2.600006,0.5 -4,0.5c-0.5,0 -1,0 -1.700012,0c-0.600006,0 -1.299988,0 -2,-0.100006s-1.399994,-0.100006 -2.100006,-0.200012c-0.699982,-0.100006 -1.299988,-0.199982 -1.799988,-0.299988l0,-28.800018c1,-0.199982 2.200012,-0.299988 3.600006,-0.399994c1.399994,-0.100006 2.899994,-0.199982 4.5,-0.199982c1.100006,0 2.199982,0.099976 3.299988,0.299988c1.100006,0.200012 2.100006,0.5 3.100006,1c0.899994,0.5 1.700012,1.200012 2.299988,2.100006c0.600037,1.199982 0.900024,2.299988 0.900024,3.799988zm-12,6.199982c0.5,0 1,0 1.699982,0c0.700012,0 1.200012,-0.100006 1.700012,-0.100006c0.699982,-0.199982 1.299988,-0.5 1.899994,-0.799988c0.600006,-0.300018 1.100006,-0.700012 1.600006,-1.100006c0.5,-0.399994 0.799988,-0.899994 1.100006,-1.5c0.299988,-0.600006 0.399994,-1.200012 0.399994,-1.899994c0,-0.899994 -0.200012,-1.700012 -0.5,-2.300018c-0.300018,-0.599976 -0.800018,-1.099976 -1.399994,-1.399994c-0.600006,-0.399994 -1.300018,-0.600006 -2,-0.799988c-0.800018,-0.200012 -1.5,-0.200012 -2.300018,-0.200012c-0.899994,0 -1.799988,0 -2.5,0.100006c-0.799988,0 -1.299988,0.100006 -1.699982,0.200012l0,9.899994l2,0l0,-0.100006zm2.299988,13.700012c0.900024,0 1.800018,-0.100006 2.600006,-0.299988c0.800018,-0.200012 1.600006,-0.5 2.200012,-1c0.600006,-0.5 1.100006,-1 1.499985,-1.700012c0.400009,-0.700012 0.600021,-1.5 0.600021,-2.399994c0,-1.100006 -0.200012,-2.100006 -0.700012,-2.800018c-0.5,-0.699982 -1.100006,-1.199982 -1.799988,-1.599976c-0.700012,-0.400024 -1.600006,-0.700012 -2.5,-0.800018c-0.900024,-0.100006 -1.800018,-0.199982 -2.800018,-0.199982l-3.600006,0l0,10.5c0.200012,0.099976 0.5,0.099976 0.800003,0.099976c0.400009,0 0.800003,0.100006 1.199997,0.100006s0.800003,0 1.300018,0.100006c0.499985,0 0.899994,0 1.199982,0z" fill="#FFFFFF"/>
   <path id="svg_31" d="m132.399994,14.5c-0.799988,-0.299988 -1.599976,-0.399994 -2.399994,-0.399994c-1.199982,0 -2.100014,0.299988 -2.799995,1c-0.700012,0.699982 -1.100006,1.5 -1.300018,2.5l0,14.600006l-3.299988,0l0,-20.900024l2.299988,0l0.600006,2.5l0.199997,0c0.500015,-0.899994 1.199997,-1.699982 1.900009,-2.199982c0.70002,-0.5 1.70002,-0.800018 2.799995,-0.800018c0.800018,0 1.700012,0.100006 2.700012,0.400024l-0.700012,3.299988z" fill="#FFFFFF"/>
   <path id="svg_32" d="m136.399994,12.799988c1.100006,-0.600006 2.299988,-1.100006 3.700012,-1.399994c1.399994,-0.300018 2.899994,-0.5 4.399994,-0.5c1.399979,0 2.600006,0.199982 3.5,0.600006c0.899979,0.399994 1.5,0.899994 2,1.5c0.5,0.599976 0.800018,1.299988 0.899979,2.099976c0.200027,0.800018 0.200027,1.5 0.200027,2.300018c0,1.699982 0,3.299988 -0.100006,4.899994c-0.100021,1.600006 -0.100021,3.100006 -0.100021,4.5c0,1 0,2 0.100021,2.899994c0.100006,0.899994 0.200012,1.800018 0.5,2.5l-2.5,0l-0.899994,-2.899994l-0.200027,0c-0.299973,0.399994 -0.59996,0.799988 -0.899979,1.100006c-0.399994,0.399994 -0.799988,0.699982 -1.399994,1c-0.5,0.299988 -1.100006,0.5 -1.799988,0.699982c-0.700012,0.200012 -1.5,0.300018 -2.400024,0.300018c-0.899994,0 -1.700012,-0.100006 -2.500015,-0.399994c-0.799973,-0.300018 -1.399979,-0.700012 -2,-1.200012c-0.59996,-0.5 -1,-1.100006 -1.299973,-1.899994s-0.5,-1.5 -0.5,-2.5c0,-1.200012 0.299988,-2.200012 0.799973,-3.100006c0.500015,-0.799988 1.200027,-1.5 2.100021,-2c0.899979,-0.5 2,-0.799988 3.300018,-1c1.299988,-0.200012 2.699982,-0.299988 4.199982,-0.299988c0.399979,0 0.800018,0 1.100006,0c0.399994,0 0.799988,0 1.099976,0.099976c0.100037,-0.799988 0.100037,-1.599976 0.100037,-2.299988c0,-1.5 -0.300018,-2.600006 -0.90004,-3.200012c-0.59996,-0.599976 -1.699966,-0.899994 -3.299973,-0.899994c-0.5,0 -1,0 -1.5,0.100006c-0.5,0.100006 -1.100006,0.200012 -1.700012,0.299988c-0.599976,0.100006 -1.099976,0.300018 -1.599976,0.5c-0.5,0.200012 -1,0.400024 -1.400024,0.600006l-1,-2.399994zm5.900024,16.800018c0.799988,0 1.5,-0.100006 2.100006,-0.299988c0.599976,-0.200012 1.099976,-0.5 1.599976,-0.800018c0.400024,-0.299988 0.800018,-0.699982 1.100006,-1.099976s0.5,-0.800018 0.600006,-1.100006l0,-3.5c-0.399994,0 -0.799988,0 -1.200012,-0.100006c-0.399994,0 -0.799988,0 -1.199982,0c-0.899994,0 -1.700012,0 -2.5,0.100006c-0.800018,0.100006 -1.5,0.299988 -2.200012,0.5c-0.600006,0.299988 -1.100006,0.600006 -1.5,1.100006s-0.600006,1 -0.600006,1.699982c0,1 0.300018,1.800018 1,2.399994c0.899994,0.700012 1.800018,1.100006 2.800018,1.100006z" fill="#FFFFFF"/>
   <path id="svg_33" d="m170.899979,32.100006l0,-11.899994c0,-2.200012 -0.299973,-3.799988 -0.899979,-4.899994c-0.600006,-1.100006 -1.799988,-1.600006 -3.399994,-1.600006c-1.5,0 -2.700027,0.399994 -3.700027,1.200012c-1,0.799988 -1.59996,1.799988 -2,3l0,14.299988l-3.299973,0l0,-20.899994l2.299973,0l0.600021,2.5l0.199982,0c0.700012,-0.899994 1.600037,-1.600006 2.700012,-2.200012c1.100006,-0.600006 2.499985,-0.899994 4,-0.899994c1.100006,0 2.100006,0.100006 3,0.399994c0.900024,0.300018 1.600006,0.700012 2.100006,1.399994c0.600006,0.700012 1,1.600006 1.300018,2.700012c0.299988,1.100006 0.399994,2.600006 0.399994,4.299988l0,12.600006l-3.300034,0z" fill="#FFFFFF"/>
   <path id="svg_34" d="m196.300018,25c0,1.399994 0,2.700012 0,3.899994c0,1.200012 0.200012,2.300018 0.399963,3.399994l-2.299957,0l-0.799988,-3l-0.200012,0c-0.600006,1 -1.399994,1.800018 -2.399994,2.400024c-1.100006,0.599976 -2.300049,1 -3.700012,1c-2.800018,0 -4.800018,-0.900024 -6.200012,-2.600006c-1.399994,-1.800018 -2,-4.5 -2,-8.200012c0,-3.600006 0.800018,-6.299988 2.5,-8.100006s4,-2.799988 7,-2.799988c1.000031,0 1.800018,0.100006 2.400024,0.200012c0.600006,0.099976 1.199982,0.299988 1.899994,0.5l0,-8.700012l3.299988,0l0,22l0.100006,0zm-8.40004,4.700012c1.40004,0 2.500046,-0.399994 3.40004,-1.100006c0.799988,-0.699982 1.399963,-1.899994 1.699982,-3.399994l0,-10.399994c-0.5,-0.399994 -1.099976,-0.700012 -1.699982,-0.800018c-0.600037,-0.199982 -1.5,-0.299988 -2.5,-0.299988c-1.90004,0 -3.400024,0.600006 -4.5,1.899994c-1.100006,1.300018 -1.600037,3.300018 -1.600037,6.100006c0,1.100006 0.100037,2.200012 0.300018,3.200012c0.200012,1 0.5,1.799988 0.899979,2.5c0.40004,0.699982 1,1.199982 1.600021,1.599976c0.600006,0.5 1.399979,0.700012 2.399979,0.700012z" fill="#FFFFFF"/>
   <path id="svg_35" d="m208.800018,23.5l1.200012,4l0,0l1,-4l4.699951,-12.100006l3.600037,0l-8.899994,21.300018l-1.399994,0l-9.100006,-21.300018l3.799957,0l5.100037,12.100006z" fill="#FFFFFF"/>
   <path id="svg_36" d="m222.900024,4.899994c0,-0.600006 0.200012,-1.200012 0.600006,-1.600006c0.399994,-0.5 1,-0.700012 1.600006,-0.700012c0.699982,0 1.199982,0.200012 1.699982,0.700012c0.5,0.5 0.700012,1 0.700012,1.600006c0,0.600006 -0.200012,1.199982 -0.700012,1.600006c-0.5,0.399994 -1,0.599976 -1.699982,0.599976c-0.700012,0 -1.200012,-0.199982 -1.600006,-0.599976c-0.400024,-0.399994 -0.600006,-0.899994 -0.600006,-1.600006zm0.699982,6.399994l3.299973,0l0,20.899994l-3.299973,0l0,-20.899994z" fill="#FFFFFF"/>
   <path id="svg_37" d="m232.600006,29.200012l9.600006,-13.299988l1.799988,-1.800018l-11.399994,0l0,-2.899994l14.899994,0l0,2.899994l-9.700027,13.399994l-1.699966,1.600006l11.399994,0l0,2.899994l-14.899994,0l0,-2.799988z" fill="#FFFFFF"/>
   <path id="svg_38" d="m250.900024,21.700012c0,-3.5 0.799973,-6.200012 2.399994,-8.100006c1.600006,-1.899994 3.800018,-2.799988 6.800018,-2.799988c1.599976,0 2.899994,0.299988 4.099976,0.799988c1.200012,0.5 2.100006,1.300018 2.900024,2.200012c0.799988,1 1.299988,2.100006 1.699982,3.5c0.399994,1.399994 0.5,2.799988 0.5,4.5c0,3.5 -0.799988,6.199982 -2.399994,8.100006c-1.600006,1.899994 -3.799988,2.799988 -6.799988,2.799988c-1.600006,0 -2.900024,-0.299988 -4.100006,-0.799988c-1.200012,-0.5 -2.100006,-1.300018 -2.899994,-2.200012c-0.800018,-1 -1.300018,-2.100006 -1.700012,-3.5c-0.300018,-1.400024 -0.5,-2.900024 -0.5,-4.5zm3.399994,0c0,1.100006 0.100006,2.100006 0.300018,3c0.199982,1 0.5,1.799988 1,2.5c0.399994,0.700012 1,1.299988 1.799988,1.799988c0.700012,0.400024 1.600006,0.700012 2.600006,0.700012c3.799988,0 5.699982,-2.600006 5.699982,-8c0,-1.100006 -0.099976,-2.100006 -0.299988,-3.100006c-0.200012,-1 -0.5,-1.799988 -1,-2.5c-0.399994,-0.699982 -1,-1.299988 -1.799988,-1.699982c-0.700012,-0.400024 -1.600006,-0.600006 -2.600006,-0.600006c-3.800018,-0.100006 -5.700012,2.499969 -5.700012,7.899994z" fill="#FFFFFF"/>
   <path id="svg_39" d="m284.300018,14.5c-0.799988,-0.299988 -1.600006,-0.399994 -2.399994,-0.399994c-1.200012,0 -2.100006,0.299988 -2.799988,1c-0.700012,0.699982 -1.100006,1.5 -1.300018,2.5l0,14.600006l-3.299988,0l0,-20.900024l2.299988,0l0.600006,2.5l0.200012,0c0.5,-0.899994 1.199982,-1.699982 1.899994,-2.199982s1.699982,-0.800018 2.799988,-0.800018c0.800018,0 1.700012,0.100006 2.700012,0.400024l-0.700012,3.299988z" fill="#FFFFFF"/>
  </g>
 </g>
</svg>