<?xml version="1.0" encoding="utf-8"?>
<!-- Generator: Adobe Illustrator 18.0.0, SVG Export Plug-In . SVG Version: 6.00 Build 0)  -->
<!DOCTYPE svg PUBLIC "-//W3C//DTD SVG 1.1//EN" "http://www.w3.org/Graphics/SVG/1.1/DTD/svg11.dtd">
<svg version="1.1" id="Layer_1" xmlns="http://www.w3.org/2000/svg" xmlns:xlink="http://www.w3.org/1999/xlink" x="0px" y="0px"
	 viewBox="0 0 100 100" enable-background="new 0 0 100 100" xml:space="preserve">
<g>
	<g>
		<circle fill="#FBCD3E" cx="33.8" cy="41.4" r="8.1"/>
		<g>
			<circle fill="none" stroke="#1D1D1D" stroke-width="2" stroke-miterlimit="10" cx="35.4" cy="40.6" r="8.1"/>
			<path fill="none" stroke="#1D1D1D" stroke-width="2" stroke-miterlimit="10" d="M38.8,38.3c0,1.4-1.1,2.5-2.5,2.5h-2.5
				c0,0,0-4.1,0-5.1c0,0,1.1,0,2.5,0S38.8,36.9,38.8,38.3z"/>
			<line fill="none" stroke="#1D1D1D" stroke-width="2" stroke-miterlimit="10" x1="33.7" y1="38.3" x2="33.7" y2="46"/>
			<line fill="none" stroke="#1D1D1D" stroke-width="2" stroke-miterlimit="10" x1="32" y1="43.5" x2="35.4" y2="43.5"/>
			<line fill="none" stroke="#1D1D1D" stroke-width="2" stroke-miterlimit="10" x1="33.7" y1="40.8" x2="32" y2="40.8"/>
		</g>
	</g>
	<circle fill="#FBCD3E" cx="53.3" cy="52.8" r="15.8"/>
	<g>
		<g>
			<polygon fill="#1D1D1D" points="61.7,58.2 54.3,51.1 54.3,40.7 56.3,40.7 56.3,50.2 63.1,56.8 			"/>
		</g>
		<g>
			<g>
				<path fill="#1D1D1D" d="M55.4,66.7c-4.1,0-8.3-1.6-11.3-4.7l1.4-1.4c4.7,4.7,12.1,5.4,17.6,1.8l1.1,1.7
					C61.5,65.8,58.5,66.7,55.4,66.7z"/>
			</g>
			<g>
				<path fill="#1D1D1D" d="M68.7,59.5l-1.7-1.1c3.7-5.5,2.9-12.9-1.8-17.6l1.4-1.4C72.1,44.7,72.9,53.2,68.7,59.5z"/>
			</g>
		</g>
		<g>
			<g>
				<path fill="#1D1D1D" d="M71.4,50.7h-2c0-6.6-4.8-12.4-11.3-13.7l0.4-2C66,36.5,71.4,43.1,71.4,50.7z"/>
			</g>
			<g>
				<path fill="#1D1D1D" d="M55.3,66.7c-8.8,0-16-7.2-16-16c0-7.6,5.4-14.2,12.8-15.7l0.4,2C46,38.3,41.3,44,41.3,50.7
					c0,7.7,6.3,14,14,14V66.7z"/>
			</g>
		</g>
	</g>
</g>
</svg>
