<?xml version="1.0" encoding="utf-8"?>
<!-- Generator: Adobe Illustrator 18.0.0, SVG Export Plug-In . SVG Version: 6.00 Build 0)  -->
<!DOCTYPE svg PUBLIC "-//W3C//DTD SVG 1.1//EN" "http://www.w3.org/Graphics/SVG/1.1/DTD/svg11.dtd">
<svg version="1.1" id="Layer_1" xmlns="http://www.w3.org/2000/svg" xmlns:xlink="http://www.w3.org/1999/xlink" x="0px" y="0px"
	 viewBox="0 0 100 100" enable-background="new 0 0 100 100" xml:space="preserve">
<g>
	<rect x="23.6" y="39.8" fill="#FBCD3E" width="30" height="24"/>
	<g>
		<polyline fill="none" stroke="#1D1D1D" stroke-width="2" stroke-miterlimit="10" points="26.6,45.8 26.6,60.8 56.6,60.8 
			56.6,45.8 		"/>
		<rect x="26.6" y="36.8" fill="none" stroke="#1D1D1D" stroke-width="2" stroke-miterlimit="10" width="30" height="6"/>
		<line fill="none" stroke="#1D1D1D" stroke-width="2" stroke-miterlimit="10" x1="29.6" y1="39.8" x2="31.6" y2="39.8"/>
		<line fill="none" stroke="#1D1D1D" stroke-width="2" stroke-miterlimit="10" x1="32.6" y1="39.8" x2="34.6" y2="39.8"/>
		<line fill="none" stroke="#1D1D1D" stroke-width="2" stroke-miterlimit="10" x1="35.6" y1="39.8" x2="37.6" y2="39.8"/>
		<g>
			<rect x="30.6" y="46.8" fill="none" stroke="#1D1D1D" stroke-width="2" stroke-miterlimit="10" width="6" height="10"/>
		</g>
		<g>
			<rect x="40.6" y="46.8" fill="none" stroke="#1D1D1D" stroke-width="2" stroke-miterlimit="10" width="12" height="10"/>
		</g>
	</g>
	<circle fill="#FBCD3E" cx="68" cy="44.8" r="2.6"/>
	<g>
		<circle fill="none" stroke="#1D1D1D" stroke-width="2" stroke-miterlimit="10" cx="69" cy="43.8" r="2.6"/>
		<path fill="none" stroke="#1D1D1D" stroke-width="2" stroke-miterlimit="10" d="M74.8,49.3c-1.9,3.1-5.9,4.1-9.1,2.3"/>
		<line fill="none" stroke="#1D1D1D" stroke-width="2" stroke-miterlimit="10" x1="69" y1="36.6" x2="69" y2="39.2"/>
		<line fill="none" stroke="#1D1D1D" stroke-width="2" stroke-miterlimit="10" x1="67" y1="47.8" x2="64.3" y2="57.1"/>
		<line fill="none" stroke="#1D1D1D" stroke-width="2" stroke-miterlimit="10" x1="70.9" y1="47.8" x2="73.6" y2="57.1"/>
	</g>
	<line fill="none" stroke="#1D1D1D" stroke-width="2" stroke-miterlimit="10" x1="62.2" y1="60.8" x2="75.7" y2="60.8"/>
</g>
</svg>
